<?xml version="1.0" standalone="no"?>
<!DOCTYPE svg PUBLIC "-//W3C//DTD SVG 1.1//EN" "http://www.w3.org/Graphics/SVG/1.1/DTD/svg11.dtd" >
<svg xmlns="http://www.w3.org/2000/svg">
<metadata></metadata>
<defs>
<font id="PressStart2PRegular" horiz-adv-x="1024" >
<font-face units-per-em="1024" ascent="1024" descent="0" />
<missing-glyph horiz-adv-x="500" />
<glyph unicode="&#xd;" />
<glyph unicode=" " />
<glyph unicode="!" d="M256 128v128h256v-128h-256zM256 384v640h384v-384h-128v-256h-256z" />
<glyph unicode="&#x22;" d="M512 640v384h256v-384h-256zM128 640v384h256v-384h-256z" />
<glyph unicode="#" d="M128 896v128h256v-128h128v128h256v-128h128v-128h-128v-384h128v-128h-128v-128h-256v128h-128v-128h-256v128h-128v128h128v384h-128v128h128zM512 384v384h-128v-384h128z" />
<glyph unicode="$" d="M384 896v128h128v-128h256v-128h-256v-128h256v-128h128v-128h-128v-128h-256v-128h-128v128h-384v128h384v128h-256v128h-128v128h128v128h256zM384 640v128h-128v-128h128zM640 384v128h-128v-128h128z" />
<glyph unicode="%" d="M640 384v128h256v-256h-128v-128h-256v256h128zM768 256v128h-128v-128h128zM768 896v128h128v-128h-128v-128h-128v-128h-128v-128h-128v-128h-128v-128h-128v-128h-128v128h128v128h128v128h128v128h128v128h128v128h128zM128 896v128h256v-256h-128v-128h-256v256h128 zM256 768v128h-128v-128h128z" />
<glyph unicode="&#x26;" d="M128 896v128h384v-128h128v-256h-128v-128h128v-128h128v128h128v-128h-128v-128h128v-128h-768v128h-128v256h128v128h-128v256h128zM384 640v256h-128v-256h128zM384 384v128h-128v-256h256v128h-128z" />
<glyph unicode="'" d="M256 640v384h256v-384h-256z" />
<glyph unicode="(" d="M512 896v128h256v-128h-128v-128h-128v-384h128v-128h128v-128h-256v128h-128v128h-128v384h128v128h128z" />
<glyph unicode=")" d="M128 896v128h256v-128h128v-128h128v-384h-128v-128h-128v-128h-256v128h128v128h128v384h-128v128h-128z" />
<glyph unicode="*" d="M128 768v128h256v-128h128v128h256v-128h-128v-128h256v-128h-256v-128h128v-128h-256v128h-128v-128h-256v128h128v128h-256v128h256v128h-128z" />
<glyph unicode="+" d="M384 640v256h256v-256h256v-128h-256v-256h-256v256h-256v128h256z" />
<glyph unicode="," d="M256 128v256h256v-256h-128v-128h-256v128h128z" />
<glyph unicode="-" d="M128 512v128h768v-128h-768z" />
<glyph unicode="." d="M256 128v256h256v-256h-256z" />
<glyph unicode="/" d="M768 896v128h128v-128h-128v-128h-128v-128h-128v-128h-128v-128h-128v-128h-128v-128h-128v128h128v128h128v128h128v128h128v128h128v128h128z" />
<glyph unicode="0" d="M256 896v128h384v-128h128v-128h128v-384h-128v-128h-128v-128h-384v128h-128v128h-128v384h128v128h128zM512 768v128h-256v-512h128v-128h256v512h-128z" />
<glyph unicode="1" d="M384 896v128h256v-768h256v-128h-768v128h256v512h-128v128h128z" />
<glyph unicode="2" d="M128 896v128h640v-128h128v-256h-128v-128h-128v-128h-256v-128h512v-128h-896v256h128v128h128v128h256v128h128v128h-384v-128h-256v128h128z" />
<glyph unicode="3" d="M128 896v128h768v-128h-128v-128h-128v-128h128v-128h128v-256h-128v-128h-640v128h-128v128h256v-128h384v256h-384v128h128v128h128v128h-384z" />
<glyph unicode="4" d="M384 896v128h384v-512h128v-128h-128v-256h-256v256h-512v256h128v128h128v128h128zM512 512v256h-128v-128h-128v-128h256z" />
<glyph unicode="5" d="M0 640v384h768v-128h-512v-128h512v-128h128v-384h-128v-128h-640v128h-128v128h256v-128h384v384h-640z" />
<glyph unicode="6" d="M256 896v128h512v-128h-384v-128h-128v-128h512v-128h128v-256h-128v-128h-640v128h-128v512h128v128h128zM640 256v256h-384v-256h384z" />
<glyph unicode="7" d="M0 768v256h896v-256h-128v-128h-128v-128h-128v-384h-256v384h128v128h128v128h128v128h-384v-128h-256z" />
<glyph unicode="8" d="M128 896v128h512v-128h128v-256h-128v-128h256v-256h-128v-128h-640v128h-128v256h128v128h-128v256h128zM640 640v256h-384v-128h128v-128h256zM384 384v128h-256v-256h512v128h-256z" />
<glyph unicode="9" d="M128 896v128h640v-128h128v-512h-128v-128h-128v-128h-512v128h384v128h128v128h-512v128h-128v256h128zM640 640v256h-384v-256h384z" />
<glyph unicode=":" d="M256 256v256h256v-256h-256zM256 640v256h256v-256h-256z" />
<glyph unicode=";" d="M256 256v256h256v-256h-128v-128h-256v128h128zM256 640v256h256v-256h-256z" />
<glyph unicode="&#x3c;" d="M512 896v128h256v-128h-128v-128h-128v-128h-128v-128h128v-128h128v-128h128v-128h-256v128h-128v128h-128v128h-128v128h128v128h128v128h128z" />
<glyph unicode="=" d="M0 384v128h896v-128h-896zM0 640v128h896v-128h-896z" />
<glyph unicode="&#x3e;" d="M128 896v128h256v-128h128v-128h128v-128h128v-128h-128v-128h-128v-128h-128v-128h-256v128h128v128h128v128h128v128h-128v128h-128v128h-128z" />
<glyph unicode="?" d="M256 128v128h384v-128h-384zM128 896v128h640v-128h128v-256h-128v-128h-128v-128h-384v128h256v128h128v128h-384v-128h-256v256h128z" />
<glyph unicode="@" d="M128 896v128h640v-128h128v-512h-640v384h384v-256h128v384h-640v-640h640v-128h-640v128h-128v640h128zM512 512v128h-128v-128h128z" />
<glyph unicode="A" d="M256 896v128h384v-128h128v-128h128v-640h-256v256h-384v-256h-256v640h128v128h128zM512 768v128h-128v-128h-128v-256h384v256h-128z" />
<glyph unicode="B" d="M0 128v896h768v-128h128v-256h-128v-128h128v-256h-128v-128h-768zM640 640v256h-384v-256h384zM640 256v256h-384v-256h384z" />
<glyph unicode="C" d="M256 896v128h512v-128h128v-128h-256v128h-256v-128h-128v-384h128v-128h256v128h256v-128h-128v-128h-512v128h-128v128h-128v384h128v128h128z" />
<glyph unicode="D" d="M0 128v896h640v-128h128v-128h128v-384h-128v-128h-128v-128h-640zM512 768v128h-256v-640h256v128h128v384h-128z" />
<glyph unicode="E" d="M0 128v896h896v-128h-640v-256h512v-128h-512v-256h640v-128h-896z" />
<glyph unicode="F" d="M0 128v896h896v-128h-640v-256h512v-128h-512v-384h-256z" />
<glyph unicode="G" d="M256 896v128h640v-128h-512v-128h-128v-384h128v-128h256v256h-128v128h384v-512h-640v128h-128v128h-128v384h128v128h128z" />
<glyph unicode="H" d="M0 128v896h256v-384h384v384h256v-896h-256v384h-384v-384h-256z" />
<glyph unicode="I" d="M128 896v128h768v-128h-256v-640h256v-128h-768v128h256v640h-256z" />
<glyph unicode="J" d="M640 256v768h256v-768h-128v-128h-640v128h-128v128h256v-128h384z" />
<glyph unicode="K" d="M0 128v896h256v-384h128v128h128v128h128v128h256v-128h-128v-128h-128v-128h-128v-128h128v-128h128v-128h128v-128h-384v128h-128v128h-128v-256h-256z" />
<glyph unicode="L" d="M128 128v896h256v-768h512v-128h-768z" />
<glyph unicode="M" d="M0 128v896h256v-128h128v-128h128v128h128v128h256v-896h-256v384h-128v-128h-128v128h-128v-384h-256z" />
<glyph unicode="N" d="M0 128v896h256v-128h128v-128h128v-128h128v384h256v-896h-256v128h-128v128h-128v128h-128v-384h-256z" />
<glyph unicode="O" d="M128 896v128h640v-128h128v-640h-128v-128h-640v128h-128v640h128zM640 256v640h-384v-640h384z" />
<glyph unicode="P" d="M0 128v896h768v-128h128v-384h-128v-128h-512v-256h-256zM640 512v384h-384v-384h384z" />
<glyph unicode="Q" d="M128 896v128h640v-128h128v-512h-128v-128h128v-128h-128v128h-128v-128h-512v128h-128v640h128zM640 512v384h-384v-640h256v128h-128v128h256z" />
<glyph unicode="R" d="M0 128v896h768v-128h128v-384h-256v-128h128v-128h128v-128h-384v128h-128v128h-128v-256h-256zM640 640v256h-384v-384h256v128h128z" />
<glyph unicode="S" d="M128 896v128h512v-128h128v-128h-256v128h-256v-256h512v-128h128v-256h-128v-128h-640v128h-128v128h256v-128h384v256h-512v128h-128v256h128z" />
<glyph unicode="T" d="M128 896v128h768v-128h-256v-768h-256v768h-256z" />
<glyph unicode="U" d="M0 256v768h256v-768h384v768h256v-768h-128v-128h-640v128h-128z" />
<glyph unicode="V" d="M0 512v512h256v-384h128v-128h128v128h128v384h256v-512h-128v-128h-128v-128h-128v-128h-128v128h-128v128h-128v128h-128z" />
<glyph unicode="W" d="M0 128v896h256v-384h128v128h128v-128h128v384h256v-896h-256v128h-128v128h-128v-128h-128v-128h-256z" />
<glyph unicode="X" d="M0 768v256h256v-128h128v-128h128v128h128v128h256v-256h-128v-128h-128v-128h128v-128h128v-256h-256v128h-128v128h-128v-128h-128v-128h-256v256h128v128h128v128h-128v128h-128z" />
<glyph unicode="Y" d="M128 640v384h256v-384h256v384h256v-384h-128v-128h-128v-384h-256v384h-128v128h-128z" />
<glyph unicode="Z" d="M0 896v128h896v-256h-128v-128h-128v-128h-128v-128h-128v-128h512v-128h-896v256h128v128h128v128h128v128h128v128h-512z" />
<glyph unicode="[" d="M256 128v896h512v-128h-256v-640h256v-128h-512z" />
<glyph unicode="\" d="M0 896v128h128v-128h128v-128h128v-128h128v-128h128v-128h128v-128h128v-128h-128v128h-128v128h-128v128h-128v128h-128v128h-128v128h-128z" />
<glyph unicode="]" d="M128 896v128h512v-896h-512v128h256v640h-256z" />
<glyph unicode="^" d="M256 896v128h384v-128h128v-128h-256v128h-128v-128h-256v128h128z" />
<glyph unicode="_" d="M0 0v128h896v-128h-896z" />
<glyph unicode="`" d="M384 896v128h128v-128h128v-128h-128v128h-128z" />
<glyph unicode="a" d="M128 640v128h640v-128h128v-512h-768v128h-128v128h128v128h512v128h-512zM640 256v128h-384v-128h384z" />
<glyph unicode="b" d="M0 256v768h256v-256h512v-128h128v-384h-128v-128h-640v128h-128zM640 256v384h-384v-384h384z" />
<glyph unicode="c" d="M128 640v128h768v-128h-640v-384h640v-128h-768v128h-128v384h128z" />
<glyph unicode="d" d="M640 768v256h256v-896h-768v128h-128v384h128v128h512zM640 256v384h-384v-384h384z" />
<glyph unicode="e" d="M128 640v128h640v-128h128v-256h-640v-128h512v-128h-640v128h-128v384h128zM640 512v128h-384v-128h384z" />
<glyph unicode="f" d="M512 896v128h384v-128h-256v-128h256v-128h-256v-512h-256v512h-256v128h256v128h128z" />
<glyph unicode="g" d="M128 640v128h768v-640h-128v-128h-640v128h512v128h-512v128h-128v256h128zM640 384v256h-384v-256h384z" />
<glyph unicode="h" d="M0 128v896h256v-256h512v-128h128v-512h-256v512h-384v-512h-256z" />
<glyph unicode="i" d="M256 640v128h384v-512h256v-128h-768v128h256v384h-128zM384 896v128h256v-128h-256z" />
<glyph unicode="j" d="M384 640v128h384v-640h-128v-128h-512v128h384v512h-128zM512 896v128h256v-128h-256z" />
<glyph unicode="k" d="M0 128v896h256v-384h256v128h384v-128h-128v-128h-128v-128h128v-128h128v-128h-384v128h-128v128h-128v-256h-256z" />
<glyph unicode="l" d="M256 896v128h384v-768h256v-128h-768v128h256v640h-128z" />
<glyph unicode="m" d="M0 128v640h768v-128h128v-512h-256v512h-128v-512h-256v512h-128v-512h-128z" />
<glyph unicode="n" d="M0 128v640h768v-128h128v-512h-256v512h-384v-512h-256z" />
<glyph unicode="o" d="M128 640v128h640v-128h128v-384h-128v-128h-640v128h-128v384h128zM640 256v384h-384v-384h384z" />
<glyph unicode="p" d="M0 0v768h768v-128h128v-256h-128v-128h-512v-256h-256zM640 384v256h-384v-256h384z" />
<glyph unicode="q" d="M128 640v128h768v-768h-256v256h-512v128h-128v256h128zM640 384v256h-384v-256h384z" />
<glyph unicode="r" d="M128 128v640h256v-128h128v128h384v-128h-384v-128h-128v-384h-256z" />
<glyph unicode="s" d="M128 640v128h640v-128h-512v-128h512v-128h128v-128h-128v-128h-768v128h640v128h-512v128h-128v128h128z" />
<glyph unicode="t" d="M384 768v256h256v-256h256v-128h-256v-512h-256v512h-256v128h256z" />
<glyph unicode="u" d="M0 256v512h256v-512h384v512h256v-640h-768v128h-128z" />
<glyph unicode="v" d="M128 384v384h256v-384h256v384h256v-384h-128v-128h-128v-128h-256v128h-128v128h-128z" />
<glyph unicode="w" d="M0 256v512h128v-512h128v512h256v-512h128v512h256v-640h-768v128h-128z" />
<glyph unicode="x" d="M0 512v256h256v-128h384v128h256v-256h-256v-128h256v-256h-256v128h-384v-128h-256v256h256v128h-256z" />
<glyph unicode="y" d="M0 384v384h256v-384h384v384h256v-640h-128v-128h-640v128h512v128h-512v128h-128z" />
<glyph unicode="z" d="M0 640v128h896v-128h-128v-128h-128v-128h-128v-128h384v-128h-896v128h128v128h128v128h128v128h-384z" />
<glyph unicode="{" d="M512 896v128h256v-128h-128v-256h-128v-128h128v-256h128v-128h-256v128h-128v256h-128v128h128v256h128z" />
<glyph unicode="|" d="M384 128v896h256v-896h-256z" />
<glyph unicode="}" d="M128 896v128h256v-128h128v-256h128v-128h-128v-256h-128v-128h-256v128h128v256h128v128h-128v256h-128z" />
<glyph unicode="~" d="M128 640v128h384v-128h128v-128h128v128h128v-128h-128v-128h-384v128h-128v128h-128v-128h-128v128h128z" />
<glyph d="M512 128v256h256v-256h-256zM128 128v256h256v-256h-256z" />
<glyph unicode="&#xa0;" />
<glyph unicode="&#xa1;" d="M384 512v256h256v-640h-384v384h128zM384 896v128h256v-128h-256z" />
<glyph unicode="&#xa2;" d="M384 896v128h128v-128h256v-128h128v-128h-256v128h-128v-384h128v128h256v-128h-128v-128h-256v-128h-128v128h-256v128h-128v384h128v128h256zM384 384v384h-128v-384h128z" />
<glyph unicode="&#xa3;" d="M256 896v128h512v-128h128v-128h-256v128h-256v-256h384v-128h-384v-256h512v-128h-896v128h128v256h-128v128h128v256h128z" />
<glyph unicode="&#xa4;" d="M128 768v128h128v-128h128v128h256v-128h128v128h128v-128h-128v-384h128v-128h-128v128h-128v-128h-256v128h-128v-128h-128v128h128v384h-128zM640 384v384h-256v-384h256z" />
<glyph unicode="&#xa5;" d="M128 768v256h256v-256h256v256h256v-256h-128v-128h128v-128h-256v-128h256v-128h-256v-128h-256v128h-256v128h256v128h-256v128h128v128h-128z" />
<glyph unicode="&#xa6;" d="M384 128v384h256v-384h-256zM384 640v384h256v-384h-256z" />
<glyph unicode="&#xa7;" d="M256 896v128h512v-128h128v-128h-256v-128h128v-128h128v-256h-128v-128h-512v128h-128v128h256v128h-128v128h-128v256h128zM640 768v128h-256v-128h256zM640 512v128h-256v-128h256zM640 256v128h-256v-128h256z" />
<glyph unicode="&#xa8;" d="M512 896v128h256v-128h-256zM128 896v128h256v-128h-256z" />
<glyph unicode="&#xa9;" d="M384 640v128h256v-128h-256v-256h256v-128h-256v128h-128v256h128zM256 896v128h512v-128h128v-128h128v-512h-128v-128h-128v-128h-512v128h-128v128h-128v512h128v128h128zM768 768v128h-512v-128h-128v-512h128v-128h512v128h128v512h-128z" />
<glyph unicode="&#xaa;" d="M128 896v128h512v-128h128v-384h-512v128h-128v128h128v128h-128zM512 640v128h-128v-128h128z" />
<glyph unicode="&#xab;" d="M256 768v128h256v-128h128v128h256v-128h-128v-128h-128v-128h128v-128h128v-128h-256v128h-128v-128h-256v128h-128v128h-128v128h128v128h128zM512 640v128h-128v-128h-128v-128h128v-128h128v128h-128v128h128z" />
<glyph unicode="&#xac;" d="M128 640v128h768v-384h-256v256h-512z" />
<glyph unicode="&#xad;" d="M128 512v128h768v-128h-768z" />
<glyph unicode="&#xae;" d="M256 256v512h384v-128h128v-128h-128v-128h128v-128h-128v128h-256v-128h-128zM640 512v128h-256v-128h256zM256 896v128h512v-128h128v-128h128v-512h-128v-128h-128v-128h-512v128h-128v128h-128v512h128v128h128zM768 768v128h-512v-128h-128v-512h128v-128h512v128 h128v512h-128z" />
<glyph unicode="&#xaf;" d="M128 896v128h640v-128h-640z" />
<glyph unicode="&#xb0;" d="M384 896v128h128v-128h128v-128h-128v-128h-128v128h-128v128h128zM512 768v128h-128v-128h128z" />
<glyph unicode="&#xb1;" d="M128 128v128h768v-128h-768zM384 768v256h256v-256h256v-128h-256v-256h-256v256h-256v128h256z" />
<glyph unicode="&#xb2;" d="M256 896v128h384v-128h128v-128h-128v-128h128v-128h-512v128h128v128h128v128h-256z" />
<glyph unicode="&#xb3;" d="M256 896v128h512v-128h-128v-128h128v-128h-128v-128h-384v128h256v128h-128v128h-128z" />
<glyph unicode="&#xb4;" d="M512 896v128h128v-128h-128v-128h-128v128h128z" />
<glyph unicode="&#xb5;" d="M0 0v768h256v-512h256v512h256v-512h128v-128h-256v128h-128v-128h-256v-128h-256z" />
<glyph unicode="&#xb6;" d="M256 896v128h640v-896h-128v256h-128v-256h-128v256h-256v128h-128v384h128zM512 512v384h-128v-128h-128v-128h128v-128h128zM768 512v384h-128v-384h128z" />
<glyph unicode="&#xb7;" d="M256 384v256h256v-256h-256z" />
<glyph unicode="&#xb8;" d="M512 128v128h128v-128h-128v-128h-256v128h256z" />
<glyph unicode="&#xb9;" d="M384 896v128h256v-384h128v-128h-512v128h128v128h-128v128h128z" />
<glyph unicode="&#xba;" d="M256 896v128h384v-128h128v-256h-128v-128h-384v128h-128v256h128zM512 640v256h-128v-256h128z" />
<glyph unicode="&#xbb;" d="M0 768v128h256v-128h128v128h256v-128h128v-128h128v-128h-128v-128h-128v-128h-256v128h-128v-128h-256v128h128v128h128v128h-128v128h-128zM512 640v128h-128v-128h128v-128h-128v-128h128v128h128v128h-128z" />
<glyph unicode="&#xbc;" d="M768 512v128h128v-512h-128v128h-256v128h128v128h128zM128 896v128h128v-512h128v128h128v128h128v128h128v128h128v-128h-128v-128h-128v-128h-128v-128h-128v-128h-128v-128h-128v-128h-128v128h128v128h128v128h-128v256h-128v128h128z" />
<glyph unicode="&#xbd;" d="M128 896v128h128v-512h128v128h128v128h128v128h128v128h128v-128h-128v-128h-128v-128h256v-256h-128v-128h128v-128h-384v128h128v128h128v128h-128v128h-128v-128h-128v-128h-128v-128h-128v-128h-128v128h128v128h128v128h-128v256h-128v128h128z" />
<glyph unicode="&#xbe;" d="M768 512v128h128v-512h-128v128h-256v128h128v128h128zM0 896v128h384v-128h-128v-128h128v-128h128v128h128v128h128v128h128v-128h-128v-128h-128v-128h-128v-128h-128v-128h-128v-128h-128v-128h-128v128h128v128h128v128h-256v128h256v128h-128v128h-128zM384 512 v128h-128v-128h128z" />
<glyph unicode="&#xbf;" d="M256 640v128h384v-128h-256v-128h-128v-128h384v128h256v-256h-128v-128h-640v128h-128v256h128v128h128zM256 896v128h384v-128h-384z" />
<glyph unicode="&#xc0;" d="M256 896v128h128v-128h128v-128h128v-128h128v-128h128v-384h-256v128h-384v-128h-256v384h128v128h128v128h128v128h-128zM512 512v128h-128v-128h-128v-128h384v128h-128z" />
<glyph unicode="&#xc1;" d="M512 896v128h128v-128h-128v-128h128v-128h128v-128h128v-384h-256v128h-384v-128h-256v384h128v128h128v128h128v128h128zM512 512v128h-128v-128h-128v-128h384v128h-128z" />
<glyph unicode="&#xc2;" d="M256 896v128h384v-128h128v-128h-128v-128h128v-128h128v-384h-256v128h-384v-128h-256v384h128v128h128v128h-128v128h128zM512 768v128h-128v-128h128zM512 512v128h-128v-128h-128v-128h384v128h-128z" />
<glyph unicode="&#xc3;" d="M256 896v128h256v-128h128v128h128v-128h-128v-256h128v-128h128v-384h-256v128h-384v-128h-256v384h128v128h128v128h-128v128h128zM384 768v128h-128v-128h128zM512 512v128h-128v-128h-128v-128h384v128h-128z" />
<glyph unicode="&#xc4;" d="M256 640v128h384v-128h128v-128h128v-384h-256v128h-384v-128h-256v384h128v128h128zM512 512v128h-128v-128h-128v-128h384v128h-128zM512 896v128h256v-128h-256zM128 896v128h256v-128h-256z" />
<glyph unicode="&#xc5;" d="M384 896v128h128v-128h128v-256h128v-128h128v-384h-256v128h-384v-128h-256v384h128v128h128v256h128zM512 768v128h-128v-128h128zM512 512v128h-128v-128h-128v-128h384v128h-128z" />
<glyph unicode="&#xc6;" d="M256 896v128h640v-128h-256v-256h256v-128h-256v-256h256v-128h-512v256h-128v-256h-256v640h128v128h128zM384 512v256h-128v-256h128z" />
<glyph unicode="&#xc7;" d="M256 896v128h512v-128h128v-128h-256v128h-256v-128h-128v-256h128v-128h256v128h256v-128h-128v-128h-128v-128h-128v-128h-256v128h256v128h-256v128h-128v128h-128v256h128v128h128z" />
<glyph unicode="&#xc8;" d="M256 896v128h128v-128h128v-128h384v-128h-640v-128h512v-128h-512v-128h640v-128h-896v640h384v128h-128z" />
<glyph unicode="&#xc9;" d="M512 896v128h128v-128h-128v-128h384v-128h-640v-128h512v-128h-512v-128h640v-128h-896v640h384v128h128z" />
<glyph unicode="&#xca;" d="M256 896v128h384v-128h128v-128h128v-128h-640v-128h512v-128h-512v-128h640v-128h-896v640h128v128h128zM512 768v128h-128v-128h128z" />
<glyph unicode="&#xcb;" d="M0 128v640h896v-128h-640v-128h512v-128h-512v-128h640v-128h-896zM512 896v128h256v-128h-256zM128 896v128h256v-128h-256z" />
<glyph unicode="&#xcc;" d="M384 896v128h128v-128h128v-128h256v-128h-256v-384h256v-128h-768v128h256v384h-256v128h384v128h-128z" />
<glyph unicode="&#xcd;" d="M512 896v128h128v-128h-128v-128h384v-128h-256v-384h256v-128h-768v128h256v384h-256v128h256v128h128z" />
<glyph unicode="&#xce;" d="M384 896v128h256v-128h128v-128h128v-128h-256v-384h256v-128h-768v128h256v384h-256v128h128v128h128z" />
<glyph unicode="&#xcf;" d="M128 640v128h768v-128h-256v-384h256v-128h-768v128h256v384h-256zM640 896v128h256v-128h-256zM128 896v128h256v-128h-256z" />
<glyph unicode="&#xd0;" d="M128 640v384h512v-128h128v-128h128v-384h-128v-128h-128v-128h-512v384h-128v128h128zM512 768v128h-128v-256h128v-128h-128v-256h128v128h128v384h-128z" />
<glyph unicode="&#xd1;" d="M256 896v128h256v-128h128v128h128v-128h-128v-128h256v-640h-384v128h-128v128h-128v-256h-256v640h128v128h128zM384 768v128h-128v-128h128v-128h128v-128h128v256h-256z" />
<glyph unicode="&#xd2;" d="M256 896v128h128v-128h128v-128h256v-128h128v-384h-128v-128h-640v128h-128v384h128v128h256v128h-128zM640 256v384h-384v-384h384z" />
<glyph unicode="&#xd3;" d="M512 896v128h128v-128h-128v-128h256v-128h128v-384h-128v-128h-640v128h-128v384h128v128h256v128h128zM640 256v384h-384v-384h384z" />
<glyph unicode="&#xd4;" d="M256 896v128h384v-128h128v-256h128v-384h-128v-128h-640v128h-128v384h128v256h128zM512 768v128h-128v-128h128zM640 256v384h-384v-384h384z" />
<glyph unicode="&#xd5;" d="M256 896v128h256v-128h128v128h128v-128h-128v-128h128v-128h128v-384h-128v-128h-640v128h-128v384h128v256h128zM384 768v128h-128v-128h128zM640 256v384h-384v-384h384z" />
<glyph unicode="&#xd6;" d="M128 640v128h640v-128h128v-384h-128v-128h-640v128h-128v384h128zM640 256v384h-384v-384h384zM512 896v128h256v-128h-256zM128 896v128h256v-128h-256z" />
<glyph unicode="&#xd7;" d="M128 768v128h128v-128h128v-128h128v128h128v128h128v-128h-128v-128h-128v-128h128v-128h128v-128h-128v128h-128v128h-128v-128h-128v-128h-128v128h128v128h128v128h-128v128h-128z" />
<glyph unicode="&#xd8;" d="M384 512v128h128v-128h-128zM128 896v128h640v-128h128v-640h-128v-128h-640v128h-128v640h128zM640 768v128h-384v-384h128v-128h-128v-128h384v384h-128v128h128z" />
<glyph unicode="&#xd9;" d="M0 256v512h256v-512h384v512h256v-512h-128v-128h-640v128h-128zM256 896v128h128v-128h128v-128h-128v128h-128z" />
<glyph unicode="&#xda;" d="M0 256v512h256v-512h384v512h256v-512h-128v-128h-640v128h-128zM512 896v128h128v-128h-128v-128h-128v128h128z" />
<glyph unicode="&#xdb;" d="M0 256v384h256v-384h384v384h256v-384h-128v-128h-640v128h-128zM256 896v128h384v-128h128v-128h-256v128h-128v-128h-256v128h128z" />
<glyph unicode="&#xdc;" d="M0 256v512h256v-512h384v512h256v-512h-128v-128h-640v128h-128zM512 896v128h256v-128h-256zM128 896v128h256v-128h-256z" />
<glyph unicode="&#xdd;" d="M512 896v128h128v-128h-128v-128h-128v-256h256v256h256v-256h-128v-128h-128v-256h-256v256h-128v128h-128v256h256v128h128z" />
<glyph unicode="&#xde;" d="M0 128v896h256v-128h512v-128h128v-384h-128v-128h-512v-128h-256zM640 384v384h-384v-384h384z" />
<glyph unicode="&#xdf;" d="M256 896v128h512v-128h128v-256h-128v-128h128v-256h-128v-128h-256v128h-128v-128h-256v768h128zM640 640v256h-256v-512h128v-128h128v256h-128v128h128z" />
<glyph unicode="&#xe0;" d="M256 896v128h128v-128h128v-128h256v-128h128v-512h-768v128h-128v128h128v128h512v128h-512v128h256v128h-128zM640 256v128h-384v-128h384z" />
<glyph unicode="&#xe1;" d="M512 896v128h128v-128h-128v-128h256v-128h128v-512h-768v128h-128v128h128v128h512v128h-512v128h256v128h128zM640 256v128h-384v-128h384z" />
<glyph unicode="&#xe2;" d="M256 896v128h384v-128h128v-256h128v-512h-768v128h-128v128h128v128h512v128h-512v256h128zM512 768v128h-128v-128h128zM640 256v128h-384v-128h384z" />
<glyph unicode="&#xe3;" d="M256 896v128h256v-128h128v128h128v-128h-128v-128h128v-128h128v-512h-768v128h-128v128h128v128h512v128h-512v256h128zM384 768v128h-128v-128h128zM640 256v128h-384v-128h384z" />
<glyph unicode="&#xe4;" d="M128 640v128h640v-128h128v-512h-768v128h-128v128h128v128h512v128h-512zM640 256v128h-384v-128h384zM512 896v128h256v-128h-256zM128 896v128h256v-128h-256z" />
<glyph unicode="&#xe5;" d="M384 896v128h128v-128h128v-128h128v-128h128v-512h-768v128h-128v128h128v128h512v128h-512v128h128v128h128zM512 768v128h-128v-128h128zM640 256v128h-384v-128h384z" />
<glyph unicode="&#xe6;" d="M128 640v128h640v-128h128v-256h-384v-128h256v-128h-640v128h-128v128h128v128h256v128h-256zM640 512v128h-128v-128h128zM384 256v128h-128v-128h128z" />
<glyph unicode="&#xe7;" d="M128 640v128h768v-128h-640v-256h640v-128h-256v-128h-128v-128h-256v128h256v128h-384v128h-128v256h128z" />
<glyph unicode="&#xe8;" d="M256 896v128h128v-128h128v-128h256v-128h128v-256h-640v-128h512v-128h-640v128h-128v384h128v128h256v128h-128zM640 512v128h-384v-128h384z" />
<glyph unicode="&#xe9;" d="M512 896v128h128v-128h-128v-128h256v-128h128v-256h-640v-128h512v-128h-640v128h-128v384h128v128h256v128h128zM640 512v128h-384v-128h384z" />
<glyph unicode="&#xea;" d="M256 896v128h384v-128h128v-256h128v-256h-640v-128h512v-128h-640v128h-128v384h128v256h128zM512 768v128h-128v-128h128zM640 512v128h-384v-128h384z" />
<glyph unicode="&#xeb;" d="M128 640v128h640v-128h128v-256h-640v-128h512v-128h-640v128h-128v384h128zM640 512v128h-384v-128h384zM512 896v128h256v-128h-256zM128 896v128h256v-128h-256z" />
<glyph unicode="&#xec;" d="M256 512v128h384v-384h256v-128h-768v128h256v256h-128zM256 896v128h128v-128h128v-128h-128v128h-128z" />
<glyph unicode="&#xed;" d="M256 512v128h384v-384h256v-128h-768v128h256v256h-128zM512 896v128h128v-128h-128v-128h-128v128h128z" />
<glyph unicode="&#xee;" d="M256 512v128h384v-384h256v-128h-768v128h256v256h-128zM256 896v128h384v-128h128v-128h-256v128h-128v-128h-256v128h128z" />
<glyph unicode="&#xef;" d="M256 640v128h384v-512h256v-128h-768v128h256v384h-128zM512 896v128h256v-128h-256zM128 896v128h256v-128h-256z" />
<glyph unicode="&#xf0;" d="M128 768v256h256v-128h256v128h128v-128h-128v-256h128v-128h128v-256h-128v-128h-640v128h-128v256h128v128h-128v128h128zM384 640v128h-256v-128h256zM640 256v256h-384v-256h384z" />
<glyph unicode="&#xf1;" d="M256 896v128h256v-128h128v128h128v-128h-128v-128h128v-128h128v-512h-256v512h-384v-512h-256v640h128v128h128zM384 768v128h-128v-128h128z" />
<glyph unicode="&#xf2;" d="M256 896v128h128v-128h128v-128h256v-128h128v-384h-128v-128h-640v128h-128v384h128v128h256v128h-128zM640 256v384h-384v-384h384z" />
<glyph unicode="&#xf3;" d="M512 896v128h128v-128h-128v-128h256v-128h128v-384h-128v-128h-640v128h-128v384h128v128h256v128h128zM640 256v384h-384v-384h384z" />
<glyph unicode="&#xf4;" d="M256 896v128h384v-128h128v-256h128v-384h-128v-128h-640v128h-128v384h128v256h128zM512 768v128h-128v-128h128zM640 256v384h-384v-384h384z" />
<glyph unicode="&#xf5;" d="M256 896v128h256v-128h128v128h128v-128h-128v-128h128v-128h128v-384h-128v-128h-640v128h-128v384h128v256h128zM384 768v128h-128v-128h128zM640 256v384h-384v-384h384z" />
<glyph unicode="&#xf6;" d="M128 640v128h640v-128h128v-384h-128v-128h-640v128h-128v384h128zM640 256v384h-384v-384h384zM512 896v128h256v-128h-256zM128 896v128h256v-128h-256z" />
<glyph unicode="&#xf7;" d="M384 256v128h256v-128h-256zM128 512v128h768v-128h-768zM384 768v128h256v-128h-256z" />
<glyph unicode="&#xf8;" d="M384 384v128h128v-128h-128zM128 640v128h640v-128h128v-384h-128v-128h-640v128h-128v384h128zM512 512v128h-256v-256h128v-128h256v256h-128z" />
<glyph unicode="&#xf9;" d="M0 256v512h256v-512h384v512h256v-640h-768v128h-128zM256 896v128h128v-128h128v-128h-128v128h-128z" />
<glyph unicode="&#xfa;" d="M0 256v512h256v-512h384v512h256v-640h-768v128h-128zM512 896v128h128v-128h-128v-128h-128v128h128z" />
<glyph unicode="&#xfb;" d="M0 256v384h256v-384h384v384h256v-512h-768v128h-128zM256 896v128h384v-128h128v-128h-256v128h-128v-128h-256v128h128z" />
<glyph unicode="&#xfc;" d="M0 256v512h256v-512h384v512h256v-640h-768v128h-128zM512 896v128h256v-128h-256zM128 896v128h256v-128h-256z" />
<glyph unicode="&#xfd;" d="M0 384v384h256v-384h384v384h256v-640h-128v-128h-640v128h512v128h-512v128h-128zM512 896v128h128v-128h-128v-128h-128v128h128z" />
<glyph unicode="&#xfe;" d="M0 0v1024h256v-256h512v-128h128v-256h-128v-128h-512v-256h-256zM640 384v256h-384v-256h384z" />
<glyph unicode="&#xff;" d="M0 384v384h256v-384h384v384h256v-640h-128v-128h-640v128h512v128h-512v128h-128zM512 896v128h256v-128h-256zM128 896v128h256v-128h-256z" />
<glyph unicode="&#x100;" d="M256 640v128h384v-128h128v-128h128v-384h-256v128h-384v-128h-256v384h128v128h128zM512 512v128h-128v-128h-128v-128h384v128h-128zM128 896v128h640v-128h-640z" />
<glyph unicode="&#x101;" d="M128 640v128h640v-128h128v-512h-768v128h-128v128h128v128h512v128h-512zM640 256v128h-384v-128h384zM128 896v128h640v-128h-640z" />
<glyph unicode="&#x102;" d="M128 896v128h128v-128h384v128h128v-128h-128v-256h128v-128h128v-384h-256v128h-384v-128h-256v384h128v128h128v256h-128zM512 512v128h-128v-128h-128v-128h384v128h-128z" />
<glyph unicode="&#x103;" d="M128 896v128h128v-128h384v128h128v-128h-128v-128h128v-128h128v-512h-768v128h-128v128h128v128h512v128h-512v128h128v128h-128zM640 256v128h-384v-128h384z" />
<glyph unicode="&#x104;" d="M256 896v128h384v-128h128v-128h128v-384h-128v-128h-128v-128h256v-128h-256v128h-128v128h128v256h-384v-128h-256v384h128v128h128zM512 768v128h-128v-128h-128v-128h384v128h-128z" />
<glyph unicode="&#x105;" d="M128 896v128h640v-128h128v-512h-384v-128h-128v-128h256v-128h-256v128h-128v128h128v128h-256v128h-128v128h128v128h512v128h-512zM640 512v128h-384v-128h384z" />
<glyph unicode="&#x106;" d="M512 896v128h128v-128h-128v-128h256v-128h128v-128h-256v128h-256v-128h-128v-128h128v-128h256v128h256v-128h-128v-128h-512v128h-128v128h-128v128h128v128h128v128h128v128h128z" />
<glyph unicode="&#x107;" d="M512 896v128h128v-128h-128v-128h384v-128h-640v-384h640v-128h-768v128h-128v384h128v128h256v128h128z" />
<glyph unicode="&#x108;" d="M256 896v128h384v-128h128v-256h128v-128h-256v128h-256v-128h-128v-128h128v-128h256v128h256v-128h-128v-128h-512v128h-128v128h-128v128h128v128h128v128h-128v128h128zM512 768v128h-128v-128h128z" />
<glyph unicode="&#x109;" d="M256 896v128h384v-128h128v-128h128v-128h-640v-384h640v-128h-768v128h-128v384h128v256h128zM512 768v128h-128v-128h128z" />
<glyph unicode="&#x10a;" d="M256 640v128h512v-128h128v-128h-256v128h-256v-128h-128v-128h128v-128h256v128h256v-128h-128v-128h-512v128h-128v128h-128v128h128v128h128zM384 896v128h256v-128h-256z" />
<glyph unicode="&#x10b;" d="M128 640v128h768v-128h-640v-384h640v-128h-768v128h-128v384h128zM384 896v128h256v-128h-256z" />
<glyph unicode="&#x10c;" d="M128 896v128h256v-128h256v128h256v-128h-128v-256h128v-128h-256v128h-256v-128h-128v-128h128v-128h256v128h256v-128h-128v-128h-512v128h-128v128h-128v128h128v128h128v256h-128z" />
<glyph unicode="&#x10d;" d="M128 896v128h256v-128h128v128h256v-128h-128v-128h256v-128h-640v-384h640v-128h-768v128h-128v384h128v128h128v128h-128z" />
<glyph unicode="&#x10e;" d="M128 896v128h256v-128h128v128h256v-128h-128v-256h128v-128h128v-128h-128v-128h-128v-128h-640v640h256v128h-128zM512 512v128h-256v-384h256v128h128v128h-128z" />
<glyph unicode="&#x10f;" d="M768 640v384h256v-256h-128v-128h-128zM384 768v256h256v-896h-512v128h-128v384h128v128h256zM384 256v384h-128v-384h128z" />
<glyph unicode="&#x110;" d="M128 640v384h512v-128h128v-128h128v-384h-128v-128h-128v-128h-512v384h-128v128h128zM512 768v128h-128v-256h128v-128h-128v-256h128v128h128v384h-128z" />
<glyph unicode="&#x111;" d="M512 896v128h256v-128h128v-128h-128v-640h-640v128h-128v384h128v128h256v128h128zM512 256v384h-256v-384h256z" />
<glyph unicode="&#x112;" d="M0 128v640h896v-128h-640v-128h512v-128h-512v-128h640v-128h-896zM128 896v128h640v-128h-640z" />
<glyph unicode="&#x113;" d="M128 640v128h640v-128h128v-256h-640v-128h512v-128h-640v128h-128v384h128zM640 512v128h-384v-128h384zM128 896v128h640v-128h-640z" />
<glyph unicode="&#x114;" d="M128 896v128h128v-128h384v128h128v-128h-128v-128h256v-128h-640v-128h512v-128h-512v-128h640v-128h-896v640h256v128h-128z" />
<glyph unicode="&#x115;" d="M128 896v128h128v-128h384v128h128v-128h-128v-128h128v-128h128v-256h-640v-128h512v-128h-640v128h-128v384h128v128h128v128h-128zM640 512v128h-384v-128h384z" />
<glyph unicode="&#x116;" d="M0 128v640h896v-128h-640v-128h512v-128h-512v-128h640v-128h-896zM384 896v128h256v-128h-256z" />
<glyph unicode="&#x117;" d="M128 640v128h640v-128h128v-256h-640v-128h512v-128h-640v128h-128v384h128zM640 512v128h-384v-128h384zM384 896v128h256v-128h-256z" />
<glyph unicode="&#x118;" d="M0 384v640h896v-128h-640v-128h512v-128h-512v-128h640v-128h-384v-128h-128v-128h256v-128h-256v128h-128v128h128v128h-384z" />
<glyph unicode="&#x119;" d="M128 896v128h640v-128h128v-256h-640v-128h512v-128h-256v-128h-128v-128h256v-128h-256v128h-128v128h128v128h-256v128h-128v384h128zM640 768v128h-384v-128h384z" />
<glyph unicode="&#x11a;" d="M128 896v128h256v-128h128v128h256v-128h-128v-128h256v-128h-640v-128h512v-128h-512v-128h640v-128h-896v640h256v128h-128z" />
<glyph unicode="&#x11b;" d="M128 896v128h256v-128h128v128h256v-128h-128v-128h128v-128h128v-256h-640v-128h512v-128h-640v128h-128v384h128v128h128v128h-128zM640 512v128h-384v-128h384z" />
<glyph unicode="&#x11c;" d="M256 896v128h384v-128h128v-128h128v-128h-640v-384h384v128h-128v128h384v-384h-768v128h-128v384h128v256h128zM512 768v128h-128v-128h128z" />
<glyph unicode="&#x11d;" d="M256 896v128h384v-128h128v-128h128v-640h-128v-128h-640v128h512v128h-512v128h-128v256h128v256h128zM512 768v128h-128v-128h128zM640 384v256h-384v-256h384z" />
<glyph unicode="&#x11e;" d="M128 896v128h128v-128h384v128h128v-128h-128v-128h256v-128h-640v-384h384v128h-128v128h384v-384h-768v128h-128v384h128v128h128v128h-128z" />
<glyph unicode="&#x11f;" d="M128 896v128h128v-128h384v128h128v-128h-128v-128h256v-640h-128v-128h-640v128h512v128h-512v128h-128v256h128v128h128v128h-128zM640 384v256h-384v-256h384z" />
<glyph unicode="&#x120;" d="M128 640v128h768v-128h-640v-384h384v128h-128v128h384v-384h-768v128h-128v384h128zM384 896v128h256v-128h-256z" />
<glyph unicode="&#x121;" d="M128 640v128h768v-640h-128v-128h-640v128h512v128h-512v128h-128v256h128zM640 384v256h-384v-256h384zM384 896v128h256v-128h-256z" />
<glyph unicode="&#x122;" d="M256 896v128h640v-128h-512v-128h-128v-256h128v-128h256v128h-128v128h384v-384h-256v-128h-128v-128h-256v128h128v128h-128v128h-128v128h-128v256h128v128h128z" />
<glyph unicode="&#x123;" d="M384 896v128h256v-128h-128v-128h384v-640h-128v-128h-640v128h512v128h-512v128h-128v256h128v128h128v128h128zM640 384v256h-384v-256h384z" />
<glyph unicode="&#x124;" d="M256 896v128h384v-128h256v-768h-256v256h-384v-256h-256v768h256zM512 768v128h-128v-128h-128v-256h384v256h-128z" />
<glyph unicode="&#x125;" d="M256 896v128h384v-128h128v-128h-256v128h-128v-128h-128v-128h512v-128h128v-384h-256v384h-384v-384h-256v768h256z" />
<glyph unicode="&#x126;" d="M0 128v896h256v-128h384v128h256v-896h-256v384h-384v-384h-256zM640 640v128h-384v-128h384z" />
<glyph unicode="&#x127;" d="M128 896v128h256v-128h128v-128h256v-128h128v-512h-256v512h-256v-512h-256v640h-128v128h128z" />
<glyph unicode="&#x128;" d="M256 896v128h256v-128h256v128h128v-128h-128v-128h128v-128h-256v-384h256v-128h-768v128h256v384h-256v256h128zM512 768v128h-256v-128h256z" />
<glyph unicode="&#x129;" d="M256 512v128h384v-384h256v-128h-768v128h256v256h-128zM256 896v128h256v-128h256v128h128v-128h-128v-128h-256v128h-256v-128h-128v128h128z" />
<glyph unicode="&#x12a;" d="M128 640v128h768v-128h-256v-384h256v-128h-768v128h256v384h-256zM128 896v128h768v-128h-768z" />
<glyph unicode="&#x12b;" d="M256 640v128h384v-512h256v-128h-768v128h256v384h-128zM128 896v128h640v-128h-640z" />
<glyph unicode="&#x12c;" d="M256 896v128h128v-128h256v128h128v-128h-128v-128h256v-128h-256v-384h256v-128h-768v128h256v384h-256v128h256v128h-128z" />
<glyph unicode="&#x12d;" d="M128 896v128h128v-128h384v128h128v-128h-128v-640h256v-128h-768v128h256v384h-128v256h-128z" />
<glyph unicode="&#x12e;" d="M128 896v128h768v-128h-256v-384h256v-128h-384v-128h-128v-128h256v-128h-256v128h-128v128h128v128h-256v128h256v384h-256z" />
<glyph unicode="&#x12f;" d="M256 640v128h384v-256h256v-128h-384v-128h-128v-128h256v-128h-256v128h-128v128h128v128h-256v128h256v128h-128zM384 896v128h256v-128h-256z" />
<glyph unicode="&#x130;" d="M128 640v128h768v-128h-256v-384h256v-128h-768v128h256v384h-256zM384 896v128h256v-128h-256z" />
<glyph unicode="&#x131;" d="M256 640v128h384v-512h256v-128h-768v128h256v384h-128z" />
<glyph unicode="&#x132;" d="M640 256v768h256v-768h-128v-128h-640v128h512zM0 896v128h512v-128h-128v-384h128v-128h-512v128h128v384h-128z" />
<glyph unicode="&#x133;" d="M512 640v128h384v-640h-128v-128h-512v128h384v512h-128zM0 640v128h384v-512h-256v384h-128zM640 896v128h256v-128h-256zM128 896v128h256v-128h-256z" />
<glyph unicode="&#x134;" d="M384 896v128h384v-128h128v-640h-128v-128h-640v128h-128v128h256v-128h384v640h-128v-128h-256v128h128z" />
<glyph unicode="&#x135;" d="M384 512v128h384v-512h-128v-128h-512v128h384v384h-128zM384 896v128h384v-128h128v-128h-256v128h-128v-128h-256v128h128z" />
<glyph unicode="&#x136;" d="M0 256v768h256v-256h128v128h128v128h256v-128h-128v-128h-128v-128h128v-128h128v-128h128v-128h-384v-128h-128v-128h-256v128h128v128h-256zM384 384v128h-128v-256h256v128h-128z" />
<glyph unicode="&#x137;" d="M0 256v768h256v-256h256v128h384v-128h-128v-128h-128v-128h128v-128h128v-128h-384v-128h-128v-128h-256v128h128v128h-256zM384 384v128h-128v-256h256v128h-128z" />
<glyph unicode="&#x138;" d="M0 128v640h256v-256h256v128h128v128h256v-128h-128v-128h-128v-128h128v-128h128v-128h-256v128h-128v128h-256v-256h-256z" />
<glyph unicode="&#x139;" d="M512 896v128h128v-128h-128v-128h-128v-512h512v-128h-768v768h384z" />
<glyph unicode="&#x13a;" d="M384 896v128h128v-128h-128v-128h128v-512h256v-128h-768v128h256v384h-128v128h128v128h128z" />
<glyph unicode="&#x13b;" d="M128 256v768h256v-640h512v-128h-256v-128h-128v-128h-256v128h128v128h-256z" />
<glyph unicode="&#x13c;" d="M256 896v128h384v-640h256v-128h-256v-128h-128v-128h-256v128h128v128h-256v128h256v512h-128z" />
<glyph unicode="&#x13d;" d="M640 640v384h256v-256h-128v-128h-128zM128 128v896h256v-768h512v-128h-768z" />
<glyph unicode="&#x13e;" d="M640 640v384h256v-256h-128v-128h-128zM128 896v128h384v-768h256v-128h-768v128h256v640h-128z" />
<glyph unicode="&#x13f;" d="M512 512v256h256v-256h-256zM128 128v896h256v-768h512v-128h-768z" />
<glyph unicode="&#x140;" d="M640 512v256h256v-256h-256zM128 896v128h384v-768h256v-128h-768v128h256v640h-128z" />
<glyph unicode="&#x141;" d="M128 640v384h256v-256h128v-128h-128v-384h512v-128h-768v384h-128v128h128z" />
<glyph unicode="&#x142;" d="M256 896v128h384v-256h128v-128h-128v-384h256v-128h-768v128h256v256h-128v128h128v256h-128z" />
<glyph unicode="&#x143;" d="M512 896v128h128v-128h-128v-128h-128v-128h128v-128h128v256h256v-640h-384v128h-128v128h-128v-256h-256v640h384v128h128z" />
<glyph unicode="&#x144;" d="M512 896v128h128v-128h-128v-128h256v-128h128v-512h-256v512h-384v-512h-256v640h384v128h128z" />
<glyph unicode="&#x145;" d="M0 256v768h384v-128h128v-128h128v256h256v-768h-256v-128h-128v-128h-256v128h128v128h256v128h-128v128h-128v128h-128v-384h-256z" />
<glyph unicode="&#x146;" d="M0 256v640h768v-128h128v-512h-256v-128h-128v-128h-256v128h128v128h256v512h-384v-512h-256z" />
<glyph unicode="&#x147;" d="M128 896v128h256v-128h128v128h256v-128h-128v-128h256v-640h-384v128h-128v128h-128v-256h-256v640h256v128h-128zM640 512v256h-256v-128h128v-128h128z" />
<glyph unicode="&#x148;" d="M128 896v128h256v-128h128v128h256v-128h-128v-128h128v-128h128v-512h-256v512h-384v-512h-256v640h256v128h-128z" />
<glyph unicode="&#x149;" d="M0 640v384h256v-256h512v-128h128v-512h-256v512h-128v-512h-256v640h-128v-128h-128z" />
<glyph unicode="&#x14a;" d="M0 256v768h384v-128h128v-128h128v256h256v-896h-128v-128h-512v128h384v256h-128v128h-128v128h-128v-384h-256z" />
<glyph unicode="&#x14b;" d="M0 256v640h768v-128h128v-640h-128v-128h-512v128h384v640h-384v-512h-256z" />
<glyph unicode="&#x14c;" d="M128 640v128h640v-128h128v-384h-128v-128h-640v128h-128v384h128zM640 256v384h-384v-384h384zM128 896v128h640v-128h-640z" />
<glyph unicode="&#x14d;" d="M128 640v128h640v-128h128v-384h-128v-128h-640v128h-128v384h128zM640 256v384h-384v-384h384zM128 896v128h640v-128h-640z" />
<glyph unicode="&#x14e;" d="M128 896v128h128v-128h384v128h128v-128h-128v-128h128v-128h128v-384h-128v-128h-640v128h-128v384h128v128h128v128h-128zM640 256v384h-384v-384h384z" />
<glyph unicode="&#x14f;" d="M128 896v128h128v-128h384v128h128v-128h-128v-128h128v-128h128v-384h-128v-128h-640v128h-128v384h128v128h128v128h-128zM640 256v384h-384v-384h384z" />
<glyph unicode="&#x150;" d="M256 896v128h128v-128h-128v-128h256v128h128v128h128v-128h-128v-128h128v-128h128v-384h-128v-128h-640v128h-128v384h128v256h128zM640 256v384h-384v-384h384z" />
<glyph unicode="&#x151;" d="M256 896v128h128v-128h-128v-128h256v128h128v128h128v-128h-128v-128h128v-128h128v-384h-128v-128h-640v128h-128v384h128v256h128zM640 256v384h-384v-384h384z" />
<glyph unicode="&#x152;" d="M128 896v128h768v-128h-256v-256h256v-128h-256v-256h256v-128h-768v128h-128v640h128zM384 256v640h-128v-640h128z" />
<glyph unicode="&#x153;" d="M128 640v128h640v-128h128v-256h-384v-128h256v-128h-640v128h-128v384h128zM384 256v384h-128v-384h128zM640 512v128h-128v-128h128z" />
<glyph unicode="&#x154;" d="M512 896v128h128v-128h-128v-128h256v-128h128v-128h-256v-128h128v-128h128v-128h-384v128h-128v128h-128v-256h-256v640h384v128h128zM512 512v128h-256v-128h256z" />
<glyph unicode="&#x155;" d="M512 896v128h128v-128h-128v-128h384v-128h-384v-128h-128v-384h-256v640h256v128h128zM512 640v128h-128v-128h128z" />
<glyph unicode="&#x156;" d="M0 256v768h768v-128h128v-256h-256v-128h128v-128h128v-128h-256v-128h-128v-128h-256v128h128v128h128v128h-128v128h-128v-256h-256zM640 768v128h-384v-256h256v128h128z" />
<glyph unicode="&#x157;" d="M128 256v640h256v-128h128v128h384v-128h-384v-128h-128v-384h128v-128h-128v-128h-256v128h128v128h-128z" />
<glyph unicode="&#x158;" d="M256 896v128h128v-128h128v128h128v-128h-128v-128h256v-128h128v-128h-256v-128h128v-128h128v-128h-384v128h-128v128h-128v-256h-256v640h384v128h-128zM512 512v128h-256v-128h256z" />
<glyph unicode="&#x159;" d="M256 896v128h256v-128h128v128h256v-128h-128v-128h128v-128h-384v-128h-128v-384h-256v640h256v128h-128zM512 640v128h-128v-128h128z" />
<glyph unicode="&#x15a;" d="M512 896v128h128v-128h-128v-128h256v-128h-512v-128h512v-128h128v-128h-128v-128h-768v128h640v128h-512v128h-128v128h128v128h256v128h128z" />
<glyph unicode="&#x15b;" d="M512 896v128h128v-128h-128v-128h256v-128h-512v-128h512v-128h128v-128h-128v-128h-768v128h640v128h-512v128h-128v128h128v128h256v128h128z" />
<glyph unicode="&#x15c;" d="M256 896v128h384v-128h128v-256h-512v-128h512v-128h128v-128h-128v-128h-768v128h640v128h-512v128h-128v128h128v256h128zM512 768v128h-128v-128h128z" />
<glyph unicode="&#x15d;" d="M256 896v128h384v-128h128v-256h-512v-128h512v-128h128v-128h-128v-128h-768v128h640v128h-512v128h-128v128h128v256h128zM512 768v128h-128v-128h128z" />
<glyph unicode="&#x15e;" d="M128 896v128h640v-128h-512v-128h512v-128h128v-256h-128v-128h-128v-128h-128v-128h-256v128h256v128h-384v128h-128v128h256v-128h384v256h-512v128h-128v128h128z" />
<glyph unicode="&#x15f;" d="M128 768v128h640v-128h-512v-128h512v-128h128v-128h-128v-128h-128v-128h-128v-128h-256v128h256v128h-512v128h640v128h-512v128h-128v128h128z" />
<glyph unicode="&#x160;" d="M128 896v128h256v-128h128v128h256v-128h-128v-128h128v-128h-512v-128h512v-128h128v-128h-128v-128h-768v128h640v128h-512v128h-128v128h128v128h128v128h-128z" />
<glyph unicode="&#x161;" d="M128 896v128h256v-128h128v128h256v-128h-128v-128h128v-128h-512v-128h512v-128h128v-128h-128v-128h-768v128h640v128h-512v128h-128v128h128v128h128v128h-128z" />
<glyph unicode="&#x162;" d="M128 896v128h768v-128h-256v-768h-128v-128h-256v128h256v128h-128v640h-256z" />
<glyph unicode="&#x163;" d="M384 768v256h256v-256h256v-128h-256v-512h-128v-128h-256v128h256v128h-128v384h-256v128h256z" />
<glyph unicode="&#x164;" d="M256 896v128h128v-128h256v128h128v-128h-128v-128h256v-128h-256v-512h-256v512h-256v128h256v128h-128z" />
<glyph unicode="&#x165;" d="M256 896v128h128v-128h256v128h128v-128h-128v-256h256v-128h-256v-384h-256v384h-256v128h256v256h-128z" />
<glyph unicode="&#x166;" d="M128 896v128h768v-128h-256v-256h128v-128h-128v-384h-256v256h-128v128h128v384h-256z" />
<glyph unicode="&#x167;" d="M384 768v256h256v-256h256v-128h-256v-128h128v-128h-128v-256h-256v128h-128v128h128v256h-256v128h256z" />
<glyph unicode="&#x168;" d="M256 896v128h256v-128h128v128h128v-128h-128v-128h256v-512h-128v-128h-640v128h-128v512h128v128h128zM384 768v128h-128v-640h384v512h-256z" />
<glyph unicode="&#x169;" d="M256 896v128h256v-128h128v128h128v-128h-128v-128h256v-640h-768v128h-128v512h128v128h128zM384 768v128h-128v-640h384v512h-256z" />
<glyph unicode="&#x16a;" d="M0 256v512h256v-512h384v512h256v-512h-128v-128h-640v128h-128zM128 896v128h640v-128h-640z" />
<glyph unicode="&#x16b;" d="M0 256v512h256v-512h384v512h256v-640h-768v128h-128zM128 896v128h640v-128h-640z" />
<glyph unicode="&#x16c;" d="M128 896v128h128v-128h384v128h128v-128h-128v-128h256v-512h-128v-128h-640v128h-128v512h256v128h-128zM640 256v512h-384v-512h384z" />
<glyph unicode="&#x16d;" d="M128 896v128h128v-128h384v128h128v-128h-128v-128h256v-640h-768v128h-128v512h256v128h-128zM640 256v512h-384v-512h384z" />
<glyph unicode="&#x16e;" d="M256 896v128h384v-128h128v-128h128v-512h-128v-128h-640v128h-128v512h128v128h128zM512 768v128h-128v-128h128zM256 640v128h-128v-128h128v-384h384v384h128v128h-128v-128h-384z" />
<glyph unicode="&#x16f;" d="M256 896v128h384v-128h128v-128h128v-640h-768v128h-128v512h128v128h128zM512 768v128h-128v-128h128zM256 640v128h-128v-128h128v-384h384v384h128v128h-128v-128h-384z" />
<glyph unicode="&#x170;" d="M256 896v128h128v-128h-128v-640h384v512h-128v128h128v128h128v-128h-128v-128h256v-512h-128v-128h-640v128h-128v512h128v128h128z" />
<glyph unicode="&#x171;" d="M256 896v128h128v-128h-128v-640h384v512h-128v128h128v128h128v-128h-128v-128h256v-640h-768v128h-128v512h128v128h128z" />
<glyph unicode="&#x172;" d="M0 512v512h256v-512h384v512h256v-512h-128v-128h-256v-128h-128v-128h256v-128h-256v128h-128v128h128v128h-256v128h-128z" />
<glyph unicode="&#x173;" d="M0 512v512h256v-512h384v512h256v-640h-384v-128h-128v-128h256v-128h-256v128h-128v128h128v128h-256v128h-128z" />
<glyph unicode="&#x174;" d="M256 896v128h384v-128h128v-128h128v-640h-384v128h-128v-128h-384v640h128v128h128zM512 768v128h-128v-128h-128v-256h128v128h128v-128h128v256h-128z" />
<glyph unicode="&#x175;" d="M256 896v128h384v-128h128v-128h128v-640h-768v128h-128v512h128v128h128zM512 768v128h-128v-128h128v-512h128v512h-128zM256 256v512h-128v-512h128z" />
<glyph unicode="&#x176;" d="M384 896v128h256v-128h128v-128h128v-256h-128v-128h-128v-256h-256v256h-128v128h-128v256h128v128h128zM640 512v384h-256v-384h256z" />
<glyph unicode="&#x177;" d="M256 896v128h384v-128h128v-128h128v-640h-128v-128h-640v128h512v128h-512v128h-128v384h128v128h128zM512 768v128h-128v-128h-128v-384h384v384h-128z" />
<glyph unicode="&#x178;" d="M128 512v256h256v-256h256v256h256v-256h-128v-128h-128v-256h-256v256h-128v128h-128zM640 896v128h256v-128h-256zM128 896v128h256v-128h-256z" />
<glyph unicode="&#x179;" d="M512 896v128h128v-128h-128v-128h384v-128h-128v-128h-128v-128h-128v-128h384v-128h-896v128h128v128h128v128h128v128h-384v128h384v128h128z" />
<glyph unicode="&#x17a;" d="M512 896v128h128v-128h-128v-128h384v-128h-128v-128h-128v-128h-128v-128h384v-128h-896v128h128v128h128v128h128v128h-384v128h384v128h128z" />
<glyph unicode="&#x17b;" d="M0 640v128h896v-128h-128v-128h-128v-128h-128v-128h384v-128h-896v128h128v128h128v128h128v128h-384zM384 896v128h256v-128h-256z" />
<glyph unicode="&#x17c;" d="M0 640v128h896v-128h-128v-128h-128v-128h-128v-128h384v-128h-896v128h128v128h128v128h128v128h-384zM384 896v128h256v-128h-256z" />
<glyph unicode="&#x17d;" d="M128 896v128h256v-128h128v128h256v-128h-128v-128h256v-128h-128v-128h-128v-128h-128v-128h384v-128h-896v128h128v128h128v128h128v128h-384v128h256v128h-128z" />
<glyph unicode="&#x17e;" d="M128 896v128h256v-128h128v128h256v-128h-128v-128h256v-128h-128v-128h-128v-128h-128v-128h384v-128h-896v128h128v128h128v128h128v128h-384v128h256v128h-128z" />
<glyph unicode="&#x17f;" d="M512 896v128h384v-128h-256v-768h-256v768h128z" />
<glyph unicode="&#x192;" d="M512 896v128h384v-128h-256v-128h256v-128h-256v-384h-128v-128h-384v128h256v384h-256v128h256v128h128z" />
<glyph unicode="&#x2c6;" d="M256 896v128h384v-128h128v-128h-256v128h-128v-128h-256v128h128z" />
<glyph unicode="&#x2c7;" d="M128 896v128h256v-128h128v128h256v-128h-128v-128h-384v128h-128z" />
<glyph unicode="&#x2c9;" d="M128 896v128h640v-128h-640z" />
<glyph unicode="&#x2ca;" d="M512 896v128h128v-128h-128v-128h-128v128h128z" />
<glyph unicode="&#x2cb;" d="M384 896v128h128v-128h128v-128h-128v128h-128z" />
<glyph unicode="&#x2d7;" d="M128 512v128h640v-128h-640z" />
<glyph unicode="&#x2d8;" d="M128 896v128h128v-128h384v128h128v-128h-128v-128h-384v128h-128z" />
<glyph unicode="&#x2d9;" d="M384 896v128h256v-128h-256z" />
<glyph unicode="&#x2da;" d="M256 896v128h384v-128h128v-128h-128v-128h-384v128h-128v128h128zM512 768v128h-128v-128h128z" />
<glyph unicode="&#x2db;" d="M384 256v128h128v-128h-128v-128h256v-128h-256v128h-128v128h128z" />
<glyph unicode="&#x2dc;" d="M256 896v128h256v-128h128v128h128v-128h-128v-128h-256v128h-128v-128h-128v128h128z" />
<glyph unicode="&#x2dd;" d="M640 896v128h128v-128h-128v-128h-128v128h128zM256 896v128h128v-128h-128v-128h-128v128h128z" />
<glyph unicode="&#x37a;" d="M384 128v128h128v-128h256v-128h-256v128h-128z" />
<glyph unicode="&#x37e;" d="M256 256v256h256v-256h-128v-128h-256v128h128zM256 640v256h256v-256h-256z" />
<glyph unicode="&#x384;" d="M512 896v128h128v-128h-128v-128h-128v128h128z" />
<glyph unicode="&#x385;" d="M768 896v128h128v-128h-128zM512 896v128h128v-128h-128v-128h-128v128h128zM128 896v128h128v-128h-128z" />
<glyph unicode="&#x386;" d="M128 896v128h128v-128h128v128h256v-128h128v-128h128v-640h-256v256h-256v-256h-256v640h-128v128h128zM256 768v128h-128v-128h128zM640 512v256h-256v-256h256z" />
<glyph unicode="&#x387;" d="M256 384v256h256v-256h-256z" />
<glyph unicode="&#x388;" d="M128 896v128h896v-128h-512v-256h256v-128h-256v-256h512v-128h-768v768h-128v-128h-128v128h128z" />
<glyph unicode="&#x389;" d="M128 896v128h384v-384h256v384h256v-896h-256v384h-256v-384h-256v768h-128v-128h-128v128h128z" />
<glyph unicode="&#x38a;" d="M384 896v128h512v-128h-128v-640h128v-128h-512v128h128v640h-128zM128 896v128h128v-128h-128v-128h-128v128h128z" />
<glyph unicode="&#x38c;" d="M128 896v128h128v-128h128v128h512v-128h128v-640h-128v-128h-512v128h-128v640h-128v-128h-128v128h128zM768 256v640h-256v-640h256z" />
<glyph unicode="&#x38e;" d="M128 896v128h384v-384h256v384h256v-384h-128v-128h-128v-384h-256v384h-128v128h-128v256h-128v-128h-128v128h128z" />
<glyph unicode="&#x38f;" d="M128 896v128h128v-128h128v128h384v-128h128v-128h128v-384h-128v-128h128v-128h-384v256h128v384h-128v128h-128v-128h-128v-384h128v-256h-384v128h128v128h-128v384h-128v128h128zM256 768v128h-128v-128h128z" />
<glyph unicode="&#x390;" d="M640 896v128h128v-128h-128zM384 896v128h128v-128h-128v-128h128v-512h256v-128h-384v128h-128v384h-128v128h128v128h128zM0 896v128h128v-128h-128z" />
<glyph unicode="&#x391;" d="M256 896v128h384v-128h128v-128h128v-640h-256v256h-384v-256h-256v640h128v128h128zM512 768v128h-128v-128h-128v-256h384v256h-128z" />
<glyph unicode="&#x392;" d="M0 128v896h768v-128h128v-256h-128v-128h128v-256h-128v-128h-768zM640 640v256h-384v-256h384zM640 256v256h-384v-256h384z" />
<glyph unicode="&#x393;" d="M128 128v896h768v-128h-512v-768h-256z" />
<glyph unicode="&#x394;" d="M256 896v128h384v-128h128v-128h128v-640h-896v640h128v128h128zM512 768v128h-128v-128h-128v-512h384v512h-128z" />
<glyph unicode="&#x395;" d="M0 128v896h896v-128h-640v-256h512v-128h-512v-256h640v-128h-896z" />
<glyph unicode="&#x396;" d="M0 896v128h896v-256h-128v-128h-128v-128h-128v-128h-128v-128h512v-128h-896v256h128v128h128v128h128v128h128v128h-512z" />
<glyph unicode="&#x397;" d="M0 128v896h256v-384h384v384h256v-896h-256v384h-384v-384h-256z" />
<glyph unicode="&#x398;" d="M128 896v128h640v-128h128v-640h-128v-128h-640v128h-128v640h128zM640 640v256h-384v-256h384zM640 256v256h-384v-256h384z" />
<glyph unicode="&#x399;" d="M128 896v128h768v-128h-256v-640h256v-128h-768v128h256v640h-256z" />
<glyph unicode="&#x39a;" d="M0 128v896h256v-384h128v128h128v128h128v128h256v-128h-128v-128h-128v-128h-128v-128h128v-128h128v-128h128v-128h-384v128h-128v128h-128v-256h-256z" />
<glyph unicode="&#x39b;" d="M256 896v128h384v-128h128v-128h128v-640h-256v640h-128v128h-128v-128h-128v-640h-256v640h128v128h128z" />
<glyph unicode="&#x39c;" d="M0 128v896h256v-128h128v-128h128v128h128v128h256v-896h-256v384h-128v-128h-128v128h-128v-384h-256z" />
<glyph unicode="&#x39d;" d="M0 128v896h256v-128h128v-128h128v-128h128v384h256v-896h-256v128h-128v128h-128v128h-128v-384h-256z" />
<glyph unicode="&#x39e;" d="M0 128v128h896v-128h-896zM128 512v128h640v-128h-640zM0 896v128h896v-128h-896z" />
<glyph unicode="&#x39f;" d="M128 896v128h640v-128h128v-640h-128v-128h-640v128h-128v640h128zM640 256v640h-384v-640h384z" />
<glyph unicode="&#x3a0;" d="M0 128v896h896v-896h-256v768h-384v-768h-256z" />
<glyph unicode="&#x3a1;" d="M0 128v896h768v-128h128v-384h-128v-128h-512v-256h-256zM640 512v384h-384v-384h384z" />
<glyph unicode="&#x3a3;" d="M0 896v128h896v-256h-256v128h-256v-128h128v-128h256v-128h-256v-128h-128v-128h256v128h256v-256h-896v128h128v128h128v128h128v128h-128v128h-128v128h-128z" />
<glyph unicode="&#x3a4;" d="M128 896v128h768v-128h-256v-768h-256v768h-256z" />
<glyph unicode="&#x3a5;" d="M128 640v384h256v-384h256v384h256v-384h-128v-128h-128v-384h-256v384h-128v128h-128z" />
<glyph unicode="&#x3a6;" d="M384 896v128h128v-128h256v-128h128v-384h-128v-128h-256v-128h-128v128h-256v128h-128v384h128v128h256zM384 384v384h-128v-384h128zM640 384v384h-128v-384h128z" />
<glyph unicode="&#x3a7;" d="M0 768v256h256v-128h128v-128h128v128h128v128h256v-256h-128v-128h-128v-128h128v-128h128v-256h-256v128h-128v128h-128v-128h-128v-128h-256v256h128v128h128v128h-128v128h-128z" />
<glyph unicode="&#x3a8;" d="M0 640v384h256v-384h128v384h256v-384h128v384h256v-384h-128v-128h-256v-256h128v-128h-512v128h128v256h-256v128h-128z" />
<glyph unicode="&#x3a9;" d="M256 896v128h384v-128h128v-128h128v-384h-128v-128h128v-128h-384v256h128v384h-128v128h-128v-128h-128v-384h128v-256h-384v128h128v128h-128v384h128v128h128z" />
<glyph unicode="&#x3aa;" d="M128 640v128h768v-128h-256v-384h256v-128h-768v128h256v384h-256zM640 896v128h256v-128h-256zM128 896v128h256v-128h-256z" />
<glyph unicode="&#x3ab;" d="M128 512v256h256v-256h256v256h256v-256h-128v-128h-128v-256h-256v256h-128v128h-128zM640 896v128h256v-128h-256zM128 896v128h256v-128h-256z" />
<glyph unicode="&#x3ac;" d="M512 896v128h128v-128h-128v-128h384v-640h-768v128h-128v384h128v128h256v128h128zM640 256v384h-384v-384h384z" />
<glyph unicode="&#x3ad;" d="M512 896v128h128v-128h-128v-128h384v-128h-640v-128h512v-128h-512v-128h640v-128h-768v128h-128v128h128v128h-128v128h128v128h256v128h128z" />
<glyph unicode="&#x3ae;" d="M512 896v128h128v-128h-128v-128h256v-128h128v-640h-256v640h-256v-512h-256v512h-128v128h256v-128h128v256h128z" />
<glyph unicode="&#x3af;" d="M384 896v128h128v-128h-128v-128h128v-512h256v-128h-384v128h-128v384h-128v128h128v128h128z" />
<glyph unicode="&#x3b0;" d="M640 896v128h128v-128h-128zM384 896v128h128v-128h-128v-128h-128v-128h128v-384h256v384h-128v128h256v-128h128v-384h-128v-128h-512v128h-128v384h-128v128h256v128h128zM0 896v128h128v-128h-128z" />
<glyph unicode="&#x3b1;" d="M128 640v128h768v-640h-768v128h-128v384h128zM640 256v384h-384v-384h384z" />
<glyph unicode="&#x3b2;" d="M128 896v128h640v-128h128v-256h-128v-128h128v-256h-128v-128h-512v-128h-256v896h128zM640 640v256h-384v-256h384zM640 256v256h-384v-256h384z" />
<glyph unicode="&#x3b3;" d="M0 640v128h256v-128h128v-256h256v384h256v-384h-128v-128h-128v-256h-256v256h-128v128h-128v256h-128z" />
<glyph unicode="&#x3b4;" d="M512 896v128h384v-128h-256v-128h128v-128h128v-384h-128v-128h-640v128h-128v256h128v128h384v128h-128v128h128zM640 256v256h-384v-256h384z" />
<glyph unicode="&#x3b5;" d="M128 640v128h768v-128h-640v-128h512v-128h-512v-128h640v-128h-768v128h-128v128h128v128h-128v128h128z" />
<glyph unicode="&#x3b6;" d="M128 896v128h640v-128h-256v-128h-128v-128h-128v-256h512v-128h128v-128h-128v-128h-256v128h128v128h-512v128h-128v256h128v128h128v128h-128z" />
<glyph unicode="&#x3b7;" d="M0 640v128h256v-128h128v128h384v-128h128v-640h-256v640h-256v-512h-256v512h-128z" />
<glyph unicode="&#x3b8;" d="M256 896v128h384v-128h128v-128h128v-384h-128v-128h-128v-128h-384v128h-128v128h-128v384h128v128h128zM512 768v128h-128v-128h-128v-128h384v128h-128zM640 384v128h-384v-128h128v-128h128v128h128z" />
<glyph unicode="&#x3b9;" d="M128 640v128h384v-512h256v-128h-384v128h-128v384h-128z" />
<glyph unicode="&#x3ba;" d="M0 128v640h256v-256h256v128h128v128h256v-128h-128v-128h-128v-128h128v-128h128v-128h-256v128h-128v128h-256v-256h-256z" />
<glyph unicode="&#x3bb;" d="M0 896v128h256v-128h128v-128h128v-128h128v-128h128v-128h128v-256h-256v256h-128v128h-128v-128h-128v-256h-256v256h128v128h128v256h-128v128h-128z" />
<glyph unicode="&#x3bc;" d="M0 0v768h256v-512h256v512h256v-512h128v-128h-256v128h-128v-128h-256v-128h-256z" />
<glyph unicode="&#x3bd;" d="M0 640v128h256v-128h128v-256h256v384h256v-384h-128v-128h-128v-128h-256v128h-128v128h-128v256h-128z" />
<glyph unicode="&#x3be;" d="M0 896v128h768v-128h-384v-128h256v-128h-256v-128h-128v-128h384v-128h128v-128h-128v-128h-256v128h128v128h-384v128h-128v128h128v128h128v128h-128v128h-128z" />
<glyph unicode="&#x3bf;" d="M128 640v128h640v-128h128v-384h-128v-128h-640v128h-128v384h128zM640 256v384h-384v-384h384z" />
<glyph unicode="&#x3c0;" d="M0 640v128h896v-128h-128v-384h128v-128h-256v128h-128v384h-128v-512h-384v128h128v384h-128z" />
<glyph unicode="&#x3c1;" d="M128 640v128h640v-128h128v-256h-128v-128h-512v-256h-256v640h128zM640 384v256h-384v-256h384z" />
<glyph unicode="&#x3c2;" d="M128 640v128h640v-128h-512v-256h512v-128h128v-128h-128v-128h-640v128h512v128h-512v128h-128v256h128z" />
<glyph unicode="&#x3c3;" d="M128 640v128h768v-128h-256v-128h128v-256h-128v-128h-512v128h-128v384h128zM384 512v128h-128v-384h256v256h-128z" />
<glyph unicode="&#x3c4;" d="M128 640v128h768v-128h-256v-384h256v-128h-384v128h-128v384h-256z" />
<glyph unicode="&#x3c5;" d="M0 640v128h256v-128h128v-384h256v384h-128v128h256v-128h128v-384h-128v-128h-512v128h-128v384h-128z" />
<glyph unicode="&#x3c6;" d="M128 640v128h128v-512h128v384h128v128h256v-128h128v-384h-128v-128h-256v-128h-128v128h-256v128h-128v384h128zM640 256v384h-128v-384h128z" />
<glyph unicode="&#x3c7;" d="M0 640v128h256v-128h128v-128h128v128h128v128h256v-128h-128v-128h-128v-128h128v-128h128v-256h-256v256h-128v128h-128v-128h-128v-256h-256v256h128v128h128v128h-128v128h-128z" />
<glyph unicode="&#x3c8;" d="M384 256v640h256v-640h128v512h256v-512h-128v-128h-256v-128h-256v128h-256v128h-128v512h256v-512h128z" />
<glyph unicode="&#x3c9;" d="M128 640v128h128v-512h128v384h128v-384h128v512h128v-128h128v-384h-128v-128h-256v128h-128v-128h-256v128h-128v384h128z" />
<glyph unicode="&#x3ca;" d="M128 640v128h384v-512h256v-128h-384v128h-128v384h-128zM384 896v128h256v-128h-256zM0 896v128h256v-128h-256z" />
<glyph unicode="&#x3cb;" d="M0 640v128h256v-128h128v-384h256v384h-128v128h256v-128h128v-384h-128v-128h-512v128h-128v384h-128zM512 896v128h256v-128h-256zM128 896v128h256v-128h-256z" />
<glyph unicode="&#x3cc;" d="M512 896v128h128v-128h-128v-128h256v-128h128v-384h-128v-128h-640v128h-128v384h128v128h256v128h128zM640 256v384h-384v-384h384z" />
<glyph unicode="&#x3cd;" d="M512 896v128h128v-128h-128v-128h256v-128h128v-384h-128v-128h-512v128h-128v384h-128v128h256v-128h128v-384h256v384h-128v128h-128v128h128z" />
<glyph unicode="&#x3ce;" d="M128 640v128h128v-512h128v384h128v-384h128v512h128v-128h128v-384h-128v-128h-256v128h-128v-128h-256v128h-128v384h128zM512 896v128h128v-128h-128v-128h-128v128h128z" />
<glyph unicode="&#x400;" d="M256 896v128h128v-128h128v-128h384v-128h-640v-128h512v-128h-512v-128h640v-128h-896v640h384v128h-128z" />
<glyph unicode="&#x401;" d="M0 128v640h896v-128h-640v-128h512v-128h-512v-128h640v-128h-896zM512 896v128h256v-128h-256zM128 896v128h256v-128h-256z" />
<glyph unicode="&#x402;" d="M0 896v128h640v-128h-256v-128h384v-128h128v-512h-128v-128h-256v128h128v512h-256v-512h-256v768h-128z" />
<glyph unicode="&#x403;" d="M512 896v128h128v-128h-128v-128h384v-128h-512v-512h-256v640h256v128h128z" />
<glyph unicode="&#x404;" d="M256 896v128h512v-128h128v-128h-256v128h-256v-128h-128v-128h512v-128h-512v-128h128v-128h256v128h256v-128h-128v-128h-512v128h-128v128h-128v384h128v128h128z" />
<glyph unicode="&#x405;" d="M128 896v128h512v-128h128v-128h-256v128h-256v-256h512v-128h128v-256h-128v-128h-640v128h-128v128h256v-128h384v256h-512v128h-128v256h128z" />
<glyph unicode="&#x406;" d="M128 896v128h768v-128h-256v-640h256v-128h-768v128h256v640h-256z" />
<glyph unicode="&#x407;" d="M128 640v128h768v-128h-256v-384h256v-128h-768v128h256v384h-256zM640 896v128h256v-128h-256zM128 896v128h256v-128h-256z" />
<glyph unicode="&#x408;" d="M640 256v768h256v-768h-128v-128h-640v128h-128v128h256v-128h384z" />
<glyph unicode="&#x409;" d="M256 896v128h256v-256h256v-128h128v-384h-128v-128h-384v640h-128v-640h-256v640h128v128h128zM640 256v384h-128v-384h128z" />
<glyph unicode="&#x40a;" d="M0 128v896h256v-384h128v384h128v-256h256v-128h128v-384h-128v-128h-384v384h-128v-384h-256zM640 256v384h-128v-384h128z" />
<glyph unicode="&#x40b;" d="M0 896v128h640v-128h-256v-128h384v-128h128v-512h-256v512h-256v-512h-256v768h-128z" />
<glyph unicode="&#x40c;" d="M0 128v640h256v-256h256v128h128v128h256v-128h-128v-128h-128v-128h128v-128h128v-128h-256v128h-128v128h-256v-256h-256zM512 896v128h128v-128h-128v-128h-128v128h128z" />
<glyph unicode="&#x40d;" d="M256 896v128h128v-128h128v-128h384v-640h-256v256h-128v-128h-128v-128h-384v640h256v-256h128v128h128v128h-128v128h-128z" />
<glyph unicode="&#x40e;" d="M128 896v128h128v-128h384v128h128v-128h-128v-128h256v-512h-128v-128h-768v128h640v128h-512v128h-128v256h256v128h-128zM640 512v256h-384v-256h384z" />
<glyph unicode="&#x40f;" d="M0 128v896h256v-768h384v768h256v-896h-384v-128h-128v128h-384z" />
<glyph unicode="&#x410;" d="M256 896v128h384v-128h128v-128h128v-640h-256v256h-384v-256h-256v640h128v128h128zM512 768v128h-128v-128h-128v-256h384v256h-128z" />
<glyph unicode="&#x411;" d="M0 128v896h768v-128h-512v-256h512v-128h128v-256h-128v-128h-768zM640 256v256h-384v-256h384z" />
<glyph unicode="&#x412;" d="M0 128v896h768v-128h128v-256h-128v-128h128v-256h-128v-128h-768zM640 640v256h-384v-256h384zM640 256v256h-384v-256h384z" />
<glyph unicode="&#x413;" d="M128 128v896h768v-128h-512v-768h-256z" />
<glyph unicode="&#x414;" d="M384 896v128h512v-896h128v-128h-256v128h-512v-128h-256v256h128v384h128v256h128zM640 256v640h-128v-256h-128v-384h256z" />
<glyph unicode="&#x415;" d="M0 128v896h896v-128h-640v-256h512v-128h-512v-256h640v-128h-896z" />
<glyph unicode="&#x416;" d="M0 768v256h256v-256h128v256h128v-256h128v256h256v-256h-128v-128h-128v-128h128v-128h128v-256h-256v256h-128v-256h-128v256h-128v-256h-256v256h128v128h128v128h-128v128h-128z" />
<glyph unicode="&#x417;" d="M128 896v128h640v-128h128v-256h-128v-128h128v-256h-128v-128h-640v128h-128v128h256v-128h384v256h-384v128h384v256h-384v-128h-256v128h128z" />
<glyph unicode="&#x418;" d="M0 128v896h256v-384h128v128h128v128h128v128h256v-896h-256v384h-128v-128h-128v-128h-128v-128h-256z" />
<glyph unicode="&#x419;" d="M128 896v128h128v-128h384v128h128v-128h-128v-128h256v-640h-256v256h-128v-128h-128v-128h-384v640h256v128h-128zM512 640v128h-256v-256h128v128h128z" />
<glyph unicode="&#x41a;" d="M0 128v896h256v-384h128v128h128v128h128v128h256v-128h-128v-128h-128v-128h-128v-128h128v-128h128v-128h128v-128h-384v128h-128v128h-128v-256h-256z" />
<glyph unicode="&#x41b;" d="M384 896v128h512v-896h-256v768h-128v-128h-128v-256h-128v-384h-256v384h128v256h128v128h128z" />
<glyph unicode="&#x41c;" d="M0 128v896h256v-128h128v-128h128v128h128v128h256v-896h-256v384h-128v-128h-128v128h-128v-384h-256z" />
<glyph unicode="&#x41d;" d="M0 128v896h256v-384h384v384h256v-896h-256v384h-384v-384h-256z" />
<glyph unicode="&#x41e;" d="M128 896v128h640v-128h128v-640h-128v-128h-640v128h-128v640h128zM640 256v640h-384v-640h384z" />
<glyph unicode="&#x41f;" d="M0 128v896h896v-896h-256v768h-384v-768h-256z" />
<glyph unicode="&#x420;" d="M0 128v896h768v-128h128v-384h-128v-128h-512v-256h-256zM640 512v384h-384v-384h384z" />
<glyph unicode="&#x421;" d="M256 896v128h512v-128h128v-128h-256v128h-256v-128h-128v-384h128v-128h256v128h256v-128h-128v-128h-512v128h-128v128h-128v384h128v128h128z" />
<glyph unicode="&#x422;" d="M128 896v128h768v-128h-256v-768h-256v768h-256z" />
<glyph unicode="&#x423;" d="M0 640v384h256v-384h384v384h256v-768h-128v-128h-640v128h-128v128h256v-128h384v256h-512v128h-128z" />
<glyph unicode="&#x424;" d="M384 896v128h128v-128h256v-128h128v-384h-128v-128h-256v-128h-128v128h-256v128h-128v384h128v128h256zM384 384v384h-128v-384h128zM640 384v384h-128v-384h128z" />
<glyph unicode="&#x425;" d="M0 768v256h256v-128h128v-128h128v128h128v128h256v-256h-128v-128h-128v-128h128v-128h128v-256h-256v128h-128v128h-128v-128h-128v-128h-256v256h128v128h128v128h-128v128h-128z" />
<glyph unicode="&#x426;" d="M0 128v896h256v-768h256v768h256v-768h128v-256h-256v128h-640z" />
<glyph unicode="&#x427;" d="M0 640v384h256v-384h384v384h256v-896h-256v384h-512v128h-128z" />
<glyph unicode="&#x428;" d="M0 128v896h256v-768h128v768h128v-768h128v768h256v-896h-896z" />
<glyph unicode="&#x429;" d="M0 128v896h256v-768h128v768h128v-768h128v768h256v-768h128v-256h-256v128h-768z" />
<glyph unicode="&#x42a;" d="M0 896v128h384v-256h384v-128h128v-384h-128v-128h-640v768h-128zM640 256v384h-256v-384h256z" />
<glyph unicode="&#x42b;" d="M0 128v896h256v-256h256v-128h128v384h256v-896h-256v128h-128v-128h-512zM384 256v384h-128v-384h128z" />
<glyph unicode="&#x42c;" d="M0 128v896h256v-256h512v-128h128v-384h-128v-128h-768zM640 256v384h-384v-384h384z" />
<glyph unicode="&#x42d;" d="M128 896v128h512v-128h128v-128h128v-384h-128v-128h-128v-128h-512v128h-128v128h256v-128h256v128h128v128h-512v128h512v128h-128v128h-256v-128h-256v128h128z" />
<glyph unicode="&#x42e;" d="M0 128v896h256v-384h128v256h128v128h384v-128h128v-640h-128v-128h-384v128h-128v256h-128v-384h-256zM768 256v640h-128v-640h128z" />
<glyph unicode="&#x42f;" d="M128 896v128h768v-896h-256v256h-128v-128h-128v-128h-384v128h128v128h128v128h-256v384h128zM640 512v384h-384v-256h128v-128h256z" />
<glyph unicode="&#x430;" d="M128 640v128h640v-128h128v-512h-768v128h-128v128h128v128h512v128h-512zM640 256v128h-384v-128h384z" />
<glyph unicode="&#x431;" d="M128 896v128h768v-128h-640v-256h128v128h384v-128h128v-384h-128v-128h-640v128h-128v640h128zM640 256v384h-256v-128h-128v-256h384z" />
<glyph unicode="&#x432;" d="M0 128v640h768v-128h128v-128h-128v-128h128v-128h-128v-128h-768zM640 512v128h-384v-128h384zM640 256v128h-384v-128h384z" />
<glyph unicode="&#x433;" d="M128 128v640h768v-128h-512v-512h-256z" />
<glyph unicode="&#x434;" d="M128 640v128h768v-640h-128v-128h-640v128h512v128h-512v128h-128v256h128zM640 384v256h-384v-256h384z" />
<glyph unicode="&#x435;" d="M128 640v128h640v-128h128v-256h-640v-128h512v-128h-640v128h-128v384h128zM640 512v128h-384v-128h384z" />
<glyph unicode="&#x436;" d="M0 512v256h256v-256h128v256h128v-256h128v256h256v-256h-128v-128h128v-256h-256v256h-128v-256h-128v256h-128v-256h-256v256h128v128h-128z" />
<glyph unicode="&#x437;" d="M0 640v128h768v-128h128v-128h-128v-128h128v-128h-128v-128h-768v128h640v128h-512v128h512v128h-640z" />
<glyph unicode="&#x438;" d="M0 128v640h256v-384h128v128h128v128h128v128h256v-640h-256v384h-128v-128h-128v-128h-128v-128h-256z" />
<glyph unicode="&#x439;" d="M128 896v128h128v-128h384v128h128v-128h-128v-128h256v-640h-256v384h-128v-128h-128v-128h-128v-128h-256v640h256v128h-128zM640 640v128h-384v-384h128v128h128v128h128z" />
<glyph unicode="&#x43a;" d="M0 128v640h256v-256h256v128h128v128h256v-128h-128v-128h-128v-128h128v-128h128v-128h-256v128h-128v128h-256v-256h-256z" />
<glyph unicode="&#x43b;" d="M256 640v128h640v-640h-256v512h-256v-256h-128v-256h-256v256h128v256h128z" />
<glyph unicode="&#x43c;" d="M0 128v640h256v-128h128v-128h128v128h128v128h256v-640h-256v384h-128v-256h-128v256h-128v-384h-256z" />
<glyph unicode="&#x43d;" d="M0 128v640h256v-256h384v256h256v-640h-256v256h-384v-256h-256z" />
<glyph unicode="&#x43e;" d="M128 640v128h640v-128h128v-384h-128v-128h-640v128h-128v384h128zM640 256v384h-384v-384h384z" />
<glyph unicode="&#x43f;" d="M0 128v640h896v-640h-256v512h-384v-512h-256z" />
<glyph unicode="&#x440;" d="M0 0v768h768v-128h128v-256h-128v-128h-512v-256h-256zM640 384v256h-384v-256h384z" />
<glyph unicode="&#x441;" d="M128 640v128h768v-128h-640v-384h640v-128h-768v128h-128v384h128z" />
<glyph unicode="&#x442;" d="M128 640v128h768v-128h-256v-512h-256v512h-256z" />
<glyph unicode="&#x443;" d="M0 384v384h256v-384h384v384h256v-640h-128v-128h-640v128h512v128h-512v128h-128z" />
<glyph unicode="&#x444;" d="M384 768v128h128v-128h256v-128h128v-384h-128v-128h-256v-128h-128v128h-256v128h-128v384h128v128h256zM384 256v384h-128v-384h128zM640 256v384h-128v-384h128z" />
<glyph unicode="&#x445;" d="M0 512v256h256v-128h384v128h256v-256h-256v-128h256v-256h-256v128h-384v-128h-256v256h256v128h-256z" />
<glyph unicode="&#x446;" d="M0 128v640h256v-512h256v512h256v-512h128v-256h-256v128h-640z" />
<glyph unicode="&#x447;" d="M0 512v256h256v-256h384v256h256v-640h-256v256h-512v128h-128z" />
<glyph unicode="&#x448;" d="M0 128v640h256v-512h128v512h128v-512h128v512h256v-640h-896z" />
<glyph unicode="&#x449;" d="M0 128v640h256v-512h128v512h128v-512h128v512h256v-512h128v-256h-256v128h-768z" />
<glyph unicode="&#x44a;" d="M0 640v128h384v-256h384v-128h128v-128h-128v-128h-640v512h-128zM640 256v128h-256v-128h256z" />
<glyph unicode="&#x44b;" d="M0 128v640h256v-256h256v-128h128v384h256v-640h-256v128h-128v-128h-512zM384 256v128h-128v-128h128z" />
<glyph unicode="&#x44c;" d="M0 128v640h256v-256h512v-128h128v-128h-128v-128h-768zM640 256v128h-384v-128h384z" />
<glyph unicode="&#x44d;" d="M128 640v128h640v-128h128v-384h-128v-128h-640v128h-128v128h256v-128h384v128h-256v128h256v128h-384v-128h-256v128h128z" />
<glyph unicode="&#x44e;" d="M0 128v640h256v-256h128v128h128v128h384v-128h128v-384h-128v-128h-384v128h-128v128h-128v-256h-256zM768 256v384h-128v-384h128z" />
<glyph unicode="&#x44f;" d="M128 640v128h768v-640h-256v256h-384v-256h-256v256h128v128h-128v128h128zM640 512v128h-384v-128h384z" />
<glyph unicode="&#x450;" d="M256 896v128h128v-128h128v-128h256v-128h128v-256h-640v-128h512v-128h-640v128h-128v384h128v128h256v128h-128zM640 512v128h-384v-128h384z" />
<glyph unicode="&#x451;" d="M128 640v128h640v-128h128v-256h-640v-128h512v-128h-640v128h-128v384h128zM640 512v128h-384v-128h384zM512 896v128h256v-128h-256zM128 896v128h256v-128h-256z" />
<glyph unicode="&#x452;" d="M128 896v128h256v-128h256v-128h-256v-128h384v-128h128v-384h-128v-128h-256v128h128v384h-256v-384h-256v640h-128v128h128z" />
<glyph unicode="&#x453;" d="M512 896v128h128v-128h-128v-128h384v-128h-512v-512h-256v640h256v128h128z" />
<glyph unicode="&#x454;" d="M128 640v128h640v-128h128v-128h-256v128h-384v-128h256v-128h-256v-128h384v128h256v-128h-128v-128h-640v128h-128v384h128z" />
<glyph unicode="&#x455;" d="M128 640v128h640v-128h-512v-128h512v-128h128v-128h-128v-128h-768v128h640v128h-512v128h-128v128h128z" />
<glyph unicode="&#x456;" d="M256 640v128h384v-512h256v-128h-768v128h256v384h-128zM384 896v128h256v-128h-256z" />
<glyph unicode="&#x457;" d="M256 640v128h384v-512h256v-128h-768v128h256v384h-128zM512 896v128h256v-128h-256zM128 896v128h256v-128h-256z" />
<glyph unicode="&#x458;" d="M384 640v128h384v-640h-128v-128h-512v128h384v512h-128zM512 896v128h256v-128h-256z" />
<glyph unicode="&#x459;" d="M256 640v128h256v-128h256v-128h128v-256h-128v-128h-384v384h-128v-384h-256v384h128v128h128zM640 256v256h-128v-256h128z" />
<glyph unicode="&#x45a;" d="M0 128v640h256v-256h128v256h128v-128h256v-128h128v-256h-128v-128h-384v256h-128v-256h-256zM640 256v256h-128v-256h128z" />
<glyph unicode="&#x45b;" d="M128 896v128h256v-128h256v-128h-256v-128h384v-128h128v-384h-256v384h-256v-384h-256v640h-128v128h128z" />
<glyph unicode="&#x45c;" d="M0 128v640h256v-256h256v128h128v128h256v-128h-128v-128h-128v-128h128v-128h128v-128h-256v128h-128v128h-256v-256h-256zM512 896v128h128v-128h-128v-128h-128v128h128z" />
<glyph unicode="&#x45d;" d="M0 128v640h256v-384h128v128h128v128h128v128h256v-640h-256v384h-128v-128h-128v-128h-128v-128h-256zM256 896v128h128v-128h128v-128h-128v128h-128z" />
<glyph unicode="&#x45e;" d="M128 896v128h128v-128h384v128h128v-128h-128v-128h256v-640h-128v-128h-640v128h512v128h-512v128h-128v384h256v128h-128zM640 384v384h-384v-384h384z" />
<glyph unicode="&#x45f;" d="M0 128v640h256v-512h384v512h256v-640h-384v-128h-128v128h-384z" />
<glyph unicode="&#x2013;" d="M0 512v128h896v-128h-896z" />
<glyph unicode="&#x2014;" d="M0 512v128h1024v-128h-1024z" />
<glyph unicode="&#x2015;" d="M0 512v128h896v-128h-896z" />
<glyph unicode="&#x2018;" d="M384 896v128h256v-128h-128v-256h-256v256h128z" />
<glyph unicode="&#x2019;" d="M384 768v256h256v-256h-128v-128h-256v128h128z" />
<glyph unicode="&#x201a;" d="M384 256v256h256v-256h-128v-128h-256v128h128z" />
<glyph unicode="&#x201c;" d="M256 896v128h256v-128h128v128h256v-128h-128v-256h-256v256h-128v-256h-256v256h128z" />
<glyph unicode="&#x201d;" d="M256 768v256h256v-256h128v256h256v-256h-128v-128h-256v128h-128v-128h-256v128h128z" />
<glyph unicode="&#x201e;" d="M128 256v256h256v-256h128v256h256v-256h-128v-128h-256v128h-128v-128h-256v128h128z" />
<glyph unicode="&#x2020;" d="M384 768v256h256v-256h256v-128h-256v-512h-256v512h-256v128h256z" />
<glyph unicode="&#x2021;" d="M384 768v256h256v-256h256v-128h-256v-128h256v-128h-256v-256h-256v256h-256v128h256v128h-256v128h256z" />
<glyph unicode="&#x2022;" d="M384 640v128h256v-128h128v-256h-128v-128h-256v128h-128v256h128z" />
<glyph unicode="&#x2026;" d="M768 128v256h128v-256h-128zM384 128v256h128v-256h-128zM0 128v256h128v-256h-128z" />
<glyph unicode="&#x2030;" d="M768 896v128h128v-128h-128v-128h-128v-128h-128v-128h512v-256h-128v-128h-512v256h-128v-128h-128v-128h-128v128h128v128h128v128h128v128h128v128h128v128h128zM512 384v128h-128v-128h128v-128h128v128h-128zM896 256v128h-128v-128h128zM128 896v128h256v-256h-128 v-128h-256v256h128zM256 768v128h-128v-128h128z" />
<glyph unicode="&#x2039;" d="M512 768v128h256v-128h-128v-128h-128v-128h128v-128h128v-128h-256v128h-128v128h-128v128h128v128h128z" />
<glyph unicode="&#x203a;" d="M128 768v128h256v-128h128v-128h128v-128h-128v-128h-128v-128h-256v128h128v128h128v128h-128v128h-128z" />
<glyph unicode="&#x2044;" d="M768 896v128h128v-128h-128v-128h-128v-128h-128v-128h-128v-128h-128v-128h-128v-128h-128v128h128v128h128v128h128v128h128v128h128v128h128z" />
<glyph unicode="&#x20ac;" d="M384 896v128h384v-128h128v-128h-256v-128h-256v-128h256v-128h256v-128h-128v-128h-384v128h-128v128h-256v128h128v128h-128v128h256v128h128zM640 768v128h-128v-128h128zM640 256v128h-128v-128h128z" />
<glyph unicode="&#x20af;" d="M128 896v128h256v-128h128v-256h128v128h128v-128h128v-384h-128v-128h-128v-128h-128v256h-128v-128h-384v768h128zM384 256v640h-256v-640h256zM768 256v384h-128v-384h128z" />
<glyph unicode="&#x2116;" d="M512 128v128h384v-128h-384zM640 896v128h128v-128h128v-384h-128v-128h-128v128h-128v384h128zM768 512v384h-128v-384h128zM0 128v896h256v-128h128v-768h-128v768h-128v-768h-128z" />
<glyph unicode="&#x2122;" d="M128 896v128h768v-512h-128v256h-128v-256h-128v384h-128v-384h-128v384h-128z" />
<glyph unicode="&#x2190;" d="M384 896v128h128v-256h512v-384h-512v-256h-128v128h-128v128h-128v128h-128v128h128v128h128v128h128z" />
<glyph unicode="&#x2191;" d="M384 896v128h128v-128h128v-128h128v-128h128v-128h-256v-512h-384v512h-256v128h128v128h128v128h128z" />
<glyph unicode="&#x2192;" d="M512 768v256h128v-128h128v-128h128v-128h128v-128h-128v-128h-128v-128h-128v-128h-128v256h-512v384h512z" />
<glyph unicode="&#x2193;" d="M256 512v512h384v-512h256v-128h-128v-128h-128v-128h-128v-128h-128v128h-128v128h-128v128h-128v128h256z" />
<glyph unicode="&#x2202;" d="M128 896v128h512v-128h128v-128h128v-512h-128v-128h-640v128h-128v256h128v128h512v128h-128v128h-256v-128h-256v128h128zM640 256v256h-384v-256h384z" />
<glyph unicode="&#x2206;" d="M256 896v128h384v-128h128v-128h128v-640h-896v640h128v128h128zM512 768v128h-128v-128h-128v-512h384v512h-128z" />
<glyph unicode="&#x220f;" d="M0 128v896h896v-896h-256v768h-384v-768h-256z" />
<glyph unicode="&#x2211;" d="M0 896v128h896v-256h-256v128h-256v-128h128v-128h256v-128h-256v-128h-128v-128h256v128h256v-256h-896v128h128v128h128v128h128v128h-128v128h-128v128h-128z" />
<glyph unicode="&#x221a;" d="M384 384v640h512v-128h-256v-768h-384v128h-128v128h-128v128h256v-128h128z" />
<glyph unicode="&#x221e;" d="M128 640v128h256v-128h128v128h256v-128h128v-256h-128v-128h-256v128h-128v-128h-256v128h-128v256h128zM384 384v256h-256v-256h256zM768 384v256h-256v-256h256z" />
<glyph unicode="&#x222b;" d="M512 896v128h256v-128h128v-128h-128v128h-128v-768h-128v-128h-256v128h-128v128h128v-128h128v768h128z" />
<glyph unicode="&#x2248;" d="M128 384v128h256v-128h256v128h128v-128h-128v-128h-256v128h-256v-128h-128v128h128zM128 768v128h256v-128h256v128h128v-128h-128v-128h-256v128h-256v-128h-128v128h128z" />
<glyph unicode="&#x2260;" d="M768 896v128h128v-128h-128v-128h128v-128h-384v-128h384v-128h-640v-128h-128v-128h-128v128h128v128h-128v128h384v128h-384v128h640v128h128z" />
<glyph unicode="&#x2264;" d="M256 128v128h512v-128h-512zM512 896v128h256v-128h-128v-128h-128v-128h128v-128h128v-128h-256v128h-128v128h-128v128h128v128h128z" />
<glyph unicode="&#x2265;" d="M256 128v128h512v-128h-512zM256 896v128h256v-128h128v-128h128v-128h-128v-128h-128v-128h-256v128h128v128h128v128h-128v128h-128z" />
<glyph unicode="&#x25b2;" d="M384 768v256h128v-256h128v-256h128v-256h128v-128h-896v128h128v256h128v256h128z" />
<glyph unicode="&#x25b6;" d="M0 128v896h128v-128h256v-128h256v-128h256v-128h-256v-128h-256v-128h-256v-128h-128z" />
<glyph unicode="&#x25bc;" d="M0 896v128h896v-128h-128v-256h-128v-256h-128v-256h-128v256h-128v256h-128v256h-128z" />
<glyph unicode="&#x25c0;" d="M768 896v128h128v-896h-128v128h-256v128h-256v128h-256v128h256v128h256v128h256z" />
<glyph unicode="&#x25ca;" d="M384 896v128h128v-128h128v-128h128v-128h128v-128h-128v-128h-128v-128h-128v-128h-128v128h-128v128h-128v128h-128v128h128v128h128v128h128zM512 768v128h-128v-128h-128v-128h-128v-128h128v-128h128v-128h128v128h128v128h128v128h-128v128h-128z" />
<glyph unicode="&#x2605;" d="M384 768v256h128v-256h384v-128h-128v-128h-128v-128h128v-256h-128v128h-128v128h-128v-128h-128v-128h-128v256h128v128h-128v128h-128v128h384z" />
<glyph unicode="&#x2606;" d="M384 768v256h128v-256h384v-128h-128v-128h-128v-128h128v-256h-128v128h-384v-128h-128v256h128v128h-128v128h-128v128h384zM512 640v128h-128v-128h-128v-128h128v-128h128v128h128v128h-128z" />
<glyph unicode="&#x2660;" d="M384 896v128h128v-128h128v-128h128v-128h128v-256h-256v-128h128v-128h-640v128h128v128h-256v256h128v128h128v128h128z" />
<glyph unicode="&#x2663;" d="M384 768v256h256v-256h256v-256h-256v-256h128v-128h-512v128h128v256h-256v256h256zM640 512v256h-256v-256h256z" />
<glyph unicode="&#x2665;" d="M128 896v128h256v-128h128v128h256v-128h128v-384h-128v-128h-128v-128h-128v-128h-128v128h-128v128h-128v128h-128v384h128z" />
<glyph unicode="&#x2666;" d="M384 896v128h128v-128h128v-128h128v-128h128v-128h-128v-128h-128v-128h-128v-128h-128v128h-128v128h-128v128h-128v128h128v128h128v128h128z" />
<glyph unicode="&#x266a;" d="M384 512v512h128v-128h128v-128h128v-128h128v-128h-128v-128h-128v128h128v128h-128v128h-128v-512h-128v-128h-256v128h-128v128h128v128h256z" />
<glyph unicode="&#xe000;" horiz-adv-x="770" d="M0 770h770v-770h-770v770z" />
<glyph unicode="&#xf100;" d="M128 128v896h768v-896h-768zM768 512v384h-512v-128h384v-128h-256v-128h384zM512 256v128h-128v-128h128z" />
<glyph unicode="&#xf101;" d="M384 256v128h384v-256h-640v128h256z" />
<glyph unicode="&#xf8ff;" d="M512 896v128h128v-128h256v-128h128v-384h-128v-128h-128v-128h-256v128h-128v-128h-128v128h-128v128h-128v384h128v128h384zM640 768v128h-128v-128h128zM896 512v256h-128v-256h-128v-128h128v128h128z" />
<glyph unicode="&#xfb01;" d="M256 896v128h384v-128h-256v-128h512v-640h-256v512h-256v-512h-256v512h-128v128h128v128h128z" />
<glyph unicode="&#xfb02;" d="M256 896v128h640v-896h-256v512h-256v-512h-256v512h-128v128h128v128h128zM640 768v128h-256v-128h256z" />
</font>
</defs>
</svg>
