<?xml version="1.0" encoding="utf-8"?>
<!-- Generator: Adobe Illustrator 15.0.2, SVG Export Plug-In  -->
<!DOCTYPE svg PUBLIC "-//W3C//DTD SVG 1.1//EN" "http://www.w3.org/Graphics/SVG/1.1/DTD/svg11.dtd" [
	<!ENTITY ns_flows "http://ns.adobe.com/Flows/1.0/">
]>
<svg version="1.1"
	 xmlns="http://www.w3.org/2000/svg" xmlns:xlink="http://www.w3.org/1999/xlink" xmlns:a="http://ns.adobe.com/AdobeSVGViewerExtensions/3.0/"
	 x="0px" y="0px" width="100px" height="1000px" viewBox="0 0 100 1000" overflow="visible" enable-background="new 0 0 100 1000"
	 xml:space="preserve">
<defs>
</defs>
<rect y="120" fill="#CCCCCC" width="100" height="100"/>
<rect y="60" fill="#5BC9F7" width="100" height="60"/>
<rect fill="#29ABE2" width="100" height="60"/>
<rect y="120" fill="#C4C4C4" width="10" height="10"/>
<rect x="20" y="120" fill="#C4C4C4" width="10" height="10"/>
<rect x="40" y="120" fill="#C4C4C4" width="10" height="10"/>
<rect x="60" y="120" fill="#C4C4C4" width="10" height="10"/>
<rect x="80" y="120" fill="#C4C4C4" width="10" height="10"/>
<rect x="10" y="130" fill="#C4C4C4" width="10" height="10"/>
<rect x="30" y="130" fill="#C4C4C4" width="10" height="10"/>
<rect x="50" y="130" fill="#C4C4C4" width="10" height="10"/>
<rect x="70" y="130" fill="#C4C4C4" width="10" height="10"/>
<rect x="90" y="130" fill="#C4C4C4" width="10" height="10"/>
<rect y="140" fill="#C4C4C4" width="10" height="10"/>
<rect x="20" y="140" fill="#C4C4C4" width="10" height="10"/>
<rect x="40" y="140" fill="#C4C4C4" width="10" height="10"/>
<rect x="60" y="140" fill="#C4C4C4" width="10" height="10"/>
<rect x="80" y="140" fill="#C4C4C4" width="10" height="10"/>
<rect x="10" y="150" fill="#C4C4C4" width="10" height="10"/>
<rect x="30" y="150" fill="#C4C4C4" width="10" height="10"/>
<rect x="50" y="150" fill="#C4C4C4" width="10" height="10"/>
<rect x="70" y="150" fill="#C4C4C4" width="10" height="10"/>
<rect x="90" y="150" fill="#C4C4C4" width="10" height="10"/>
<rect y="160" fill="#C4C4C4" width="10" height="10"/>
<rect x="20" y="160" fill="#C4C4C4" width="10" height="10"/>
<rect x="40" y="160" fill="#C4C4C4" width="10" height="10"/>
<rect x="60" y="160" fill="#C4C4C4" width="10" height="10"/>
<rect x="80" y="160" fill="#C4C4C4" width="10" height="10"/>
<rect x="10" y="170" fill="#C4C4C4" width="10" height="10"/>
<rect x="30" y="170" fill="#C4C4C4" width="10" height="10"/>
<rect x="50" y="170" fill="#C4C4C4" width="10" height="10"/>
<rect x="70" y="170" fill="#C4C4C4" width="10" height="10"/>
<rect x="90" y="170" fill="#C4C4C4" width="10" height="10"/>
<rect y="180" fill="#C4C4C4" width="10" height="10"/>
<rect x="20" y="180" fill="#C4C4C4" width="10" height="10"/>
<rect x="40" y="180" fill="#C4C4C4" width="10" height="10"/>
<rect x="60" y="180" fill="#C4C4C4" width="10" height="10"/>
<rect x="80" y="180" fill="#C4C4C4" width="10" height="10"/>
<rect x="10" y="190" fill="#C4C4C4" width="10" height="10"/>
<rect x="30" y="190" fill="#C4C4C4" width="10" height="10"/>
<rect x="50" y="190" fill="#C4C4C4" width="10" height="10"/>
<rect x="70" y="190" fill="#C4C4C4" width="10" height="10"/>
<rect x="90" y="190" fill="#C4C4C4" width="10" height="10"/>
<rect y="200" fill="#C4C4C4" width="10" height="10"/>
<rect x="20" y="200" fill="#C4C4C4" width="10" height="10"/>
<rect x="40" y="200" fill="#C4C4C4" width="10" height="10"/>
<rect x="60" y="200" fill="#C4C4C4" width="10" height="10"/>
<rect x="80" y="200" fill="#C4C4C4" width="10" height="10"/>
<rect x="10" y="210" fill="#C4C4C4" width="10" height="10"/>
<rect x="30" y="210" fill="#C4C4C4" width="10" height="10"/>
<rect x="50" y="210" fill="#C4C4C4" width="10" height="10"/>
<rect x="70" y="210" fill="#C4C4C4" width="10" height="10"/>
<rect x="90" y="210" fill="#C4C4C4" width="10" height="10"/>
<rect y="120" fill="#C4C4C4" width="10" height="10"/>
<rect x="20" y="120" fill="#C4C4C4" width="10" height="10"/>
<rect x="40" y="120" fill="#C4C4C4" width="10" height="10"/>
<rect x="60" y="120" fill="#C4C4C4" width="10" height="10"/>
<rect x="80" y="120" fill="#C4C4C4" width="10" height="10"/>
<rect x="10" y="130" fill="#C4C4C4" width="10" height="10"/>
<rect x="30" y="130" fill="#C4C4C4" width="10" height="10"/>
<rect x="50" y="130" fill="#C4C4C4" width="10" height="10"/>
<rect x="70" y="130" fill="#C4C4C4" width="10" height="10"/>
<rect x="90" y="130" fill="#C4C4C4" width="10" height="10"/>
<rect y="140" fill="#C4C4C4" width="10" height="10"/>
<rect x="20" y="140" fill="#C4C4C4" width="10" height="10"/>
<rect x="40" y="140" fill="#C4C4C4" width="10" height="10"/>
<rect x="60" y="140" fill="#C4C4C4" width="10" height="10"/>
<rect x="80" y="140" fill="#C4C4C4" width="10" height="10"/>
<rect x="10" y="150" fill="#C4C4C4" width="10" height="10"/>
<rect x="30" y="150" fill="#C4C4C4" width="10" height="10"/>
<rect x="50" y="150" fill="#C4C4C4" width="10" height="10"/>
<rect x="70" y="150" fill="#C4C4C4" width="10" height="10"/>
<rect x="90" y="150" fill="#C4C4C4" width="10" height="10"/>
<rect y="160" fill="#C4C4C4" width="10" height="10"/>
<rect x="20" y="160" fill="#C4C4C4" width="10" height="10"/>
<rect x="40" y="160" fill="#C4C4C4" width="10" height="10"/>
<rect x="60" y="160" fill="#C4C4C4" width="10" height="10"/>
<rect x="80" y="160" fill="#C4C4C4" width="10" height="10"/>
<rect x="10" y="170" fill="#C4C4C4" width="10" height="10"/>
<rect x="30" y="170" fill="#C4C4C4" width="10" height="10"/>
<rect x="50" y="170" fill="#C4C4C4" width="10" height="10"/>
<rect x="70" y="170" fill="#C4C4C4" width="10" height="10"/>
<rect x="90" y="170" fill="#C4C4C4" width="10" height="10"/>
<rect y="180" fill="#C4C4C4" width="10" height="10"/>
<rect x="20" y="180" fill="#C4C4C4" width="10" height="10"/>
<rect x="40" y="180" fill="#C4C4C4" width="10" height="10"/>
<rect x="60" y="180" fill="#C4C4C4" width="10" height="10"/>
<rect x="80" y="180" fill="#C4C4C4" width="10" height="10"/>
<rect x="10" y="190" fill="#C4C4C4" width="10" height="10"/>
<rect x="30" y="190" fill="#C4C4C4" width="10" height="10"/>
<rect x="50" y="190" fill="#C4C4C4" width="10" height="10"/>
<rect x="70" y="190" fill="#C4C4C4" width="10" height="10"/>
<rect x="90" y="190" fill="#C4C4C4" width="10" height="10"/>
<rect y="200" fill="#C4C4C4" width="10" height="10"/>
<rect x="20" y="200" fill="#C4C4C4" width="10" height="10"/>
<rect x="40" y="200" fill="#C4C4C4" width="10" height="10"/>
<rect x="60" y="200" fill="#C4C4C4" width="10" height="10"/>
<rect x="80" y="200" fill="#C4C4C4" width="10" height="10"/>
<rect x="10" y="210" fill="#C4C4C4" width="10" height="10"/>
<rect x="30" y="210" fill="#C4C4C4" width="10" height="10"/>
<rect x="50" y="210" fill="#C4C4C4" width="10" height="10"/>
<rect x="70" y="210" fill="#C4C4C4" width="10" height="10"/>
<rect x="90" y="210" fill="#C4C4C4" width="10" height="10"/>
<rect x="10" y="40" fill="#FFFFFF" width="10" height="10"/>
<rect x="50" y="40" fill="#FFFFFF" width="10" height="10"/>
<rect x="90" y="40" fill="#FFFFFF" width="10" height="10"/>
<rect y="50" fill="#FFFFFF" width="10" height="10"/>
<rect x="20" y="50" fill="#FFFFFF" width="10" height="10"/>
<rect x="60" y="50" fill="#FFFFFF" width="10" height="10"/>
<rect x="10" y="60" fill="#FFFFFF" width="10" height="10"/>
<rect x="30" y="60" fill="#FFFFFF" width="10" height="10"/>
<rect x="90" y="60" fill="#FFFFFF" width="10" height="10"/>
<rect y="70" fill="#FFFFFF" width="10" height="10"/>
<rect x="40" y="70" fill="#FFFFFF" width="10" height="10"/>
<rect x="80" y="70" fill="#FFFFFF" width="10" height="10"/>
<rect y="170" fill="#8CC63F" width="100" height="100"/>
<rect y="270" fill="#39B54A" width="100" height="100"/>
<rect y="370" fill="#009245" width="100" height="100"/>
<rect y="470" fill="#006837" width="100" height="530"/>
<rect y="170" fill="#39B54A" width="10" height="10"/>
<rect x="40" y="170" fill="#39B54A" width="10" height="10"/>
<rect x="60" y="170" fill="#39B54A" width="10" height="10"/>
<rect x="80" y="170" fill="#39B54A" width="10" height="10"/>
<rect x="10" y="180" fill="#39B54A" width="10" height="10"/>
<rect x="50" y="180" fill="#39B54A" width="10" height="10"/>
<rect y="190" fill="#39B54A" width="10" height="10"/>
<rect x="20" y="190" fill="#39B54A" width="10" height="10"/>
<rect x="60" y="190" fill="#39B54A" width="10" height="10"/>
<rect x="80" y="190" fill="#39B54A" width="10" height="10"/>
<rect x="10" y="200" fill="#39B54A" width="10" height="10"/>
<rect x="30" y="200" fill="#39B54A" width="10" height="10"/>
<rect x="50" y="200" fill="#39B54A" width="10" height="10"/>
<rect x="70" y="200" fill="#39B54A" width="10" height="10"/>
<rect x="20" y="210" fill="#39B54A" width="10" height="10"/>
<rect x="40" y="210" fill="#39B54A" width="10" height="10"/>
<rect x="80" y="210" fill="#39B54A" width="10" height="10"/>
<rect x="50" y="220" fill="#39B54A" width="10" height="10"/>
<polyline fill="#39B54A" points="80,230 70,230 70,220 80,220 "/>
<rect x="90" y="220" fill="#39B54A" width="10" height="10"/>
<rect y="230" fill="#39B54A" width="10" height="10"/>
<rect x="40" y="230" fill="#39B54A" width="10" height="10"/>
<rect x="60" y="230" fill="#39B54A" width="10" height="10"/>
<rect x="80" y="230" fill="#39B54A" width="10" height="10"/>
<rect x="10" y="240" fill="#39B54A" width="10" height="10"/>
<rect x="50" y="240" fill="#39B54A" width="10" height="10"/>
<rect x="70" y="240" fill="#39B54A" width="10" height="10"/>
<rect x="90" y="240" fill="#39B54A" width="10" height="10"/>
<rect y="250" fill="#39B54A" width="10" height="10"/>
<rect x="20" y="250" fill="#39B54A" width="10" height="10"/>
<rect x="40" y="250" fill="#39B54A" width="10" height="10"/>
<rect x="60" y="250" fill="#39B54A" width="10" height="10"/>
<rect x="80" y="250" fill="#39B54A" width="10" height="10"/>
<rect x="10" y="260" fill="#39B54A" width="10" height="10"/>
<rect x="50" y="260" fill="#39B54A" width="10" height="10"/>
<rect x="90" y="260" fill="#39B54A" width="10" height="10"/>
<rect y="270" fill="#009245" width="10" height="10"/>
<rect x="20" y="270" fill="#009245" width="10" height="10"/>
<rect x="60" y="270" fill="#009245" width="10" height="10"/>
<rect x="10" y="280" fill="#009245" width="10" height="10"/>
<rect x="30" y="280" fill="#009245" width="10" height="10"/>
<rect x="50" y="280" fill="#009245" width="10" height="10"/>
<rect x="90" y="280" fill="#009245" width="10" height="10"/>
<rect x="60" y="290" fill="#009245" width="10" height="10"/>
<rect x="80" y="290" fill="#009245" width="10" height="10"/>
<rect x="10" y="300" fill="#009245" width="10" height="10"/>
<rect x="30" y="300" fill="#009245" width="10" height="10"/>
<rect x="50" y="300" fill="#009245" width="10" height="10"/>
<rect x="90" y="300" fill="#009245" width="10" height="10"/>
<rect y="310" fill="#009245" width="10" height="10"/>
<rect x="40" y="310" fill="#009245" width="10" height="10"/>
<rect x="60" y="310" fill="#009245" width="10" height="10"/>
<rect x="80" y="310" fill="#009245" width="10" height="10"/>
<rect x="10" y="320" fill="#009245" width="10" height="10"/>
<rect x="30" y="320" fill="#009245" width="10" height="10"/>
<rect x="50" y="320" fill="#009245" width="10" height="10"/>
<rect x="70" y="320" fill="#009245" width="10" height="10"/>
<rect x="90" y="320" fill="#009245" width="10" height="10"/>
<rect x="20" y="330" fill="#009245" width="10" height="10"/>
<rect x="40" y="330" fill="#009245" width="10" height="10"/>
<rect x="80" y="330" fill="#009245" width="10" height="10"/>
<rect x="10" y="340" fill="#009245" width="10" height="10"/>
<rect x="30" y="340" fill="#009245" width="10" height="10"/>
<rect x="50" y="340" fill="#009245" width="10" height="10"/>
<rect x="70" y="340" fill="#009245" width="10" height="10"/>
<rect y="350" fill="#009245" width="10" height="10"/>
<rect x="40" y="350" fill="#009245" width="10" height="10"/>
<rect x="60" y="350" fill="#009245" width="10" height="10"/>
<rect x="80" y="350" fill="#009245" width="10" height="10"/>
<rect x="10" y="360" fill="#009245" width="10" height="10"/>
<rect x="30" y="360" fill="#009245" width="10" height="10"/>
<rect x="90" y="360" fill="#009245" width="10" height="10"/>
<polyline fill="#006837" points="10,380 0,380 0,370 10,370 "/>
<rect x="20" y="370" fill="#006837" width="10" height="10"/>
<rect x="60" y="370" fill="#006837" width="10" height="10"/>
<rect x="80" y="370" fill="#006837" width="10" height="10"/>
<rect x="10" y="380" fill="#006837" width="10" height="10"/>
<rect x="30" y="380" fill="#006837" width="10" height="10"/>
<rect x="50" y="380" fill="#006837" width="10" height="10"/>
<rect x="90" y="380" fill="#006837" width="10" height="10"/>
<rect x="20" y="390" fill="#006837" width="10" height="10"/>
<rect x="60" y="390" fill="#006837" width="10" height="10"/>
<rect x="50" y="400" fill="#006837" width="10" height="10"/>
<rect x="70" y="400" fill="#006837" width="10" height="10"/>
<rect y="410" fill="#006837" width="10" height="10"/>
<rect x="20" y="410" fill="#006837" width="10" height="10"/>
<rect x="40" y="410" fill="#006837" width="10" height="10"/>
<polyline fill="#006837" points="80,410 90,410 90,420 80,420 "/>
<rect x="30" y="420" fill="#006837" width="10" height="10"/>
<rect x="50" y="420" fill="#006837" width="10" height="10"/>
<rect x="70" y="420" fill="#006837" width="10" height="10"/>
<rect x="90" y="420" fill="#006837" width="10" height="10"/>
<rect y="430" fill="#006837" width="10" height="10"/>
<rect x="40" y="430" fill="#006837" width="10" height="10"/>
<rect x="80" y="430" fill="#006837" width="10" height="10"/>
<rect x="10" y="440" fill="#006837" width="10" height="10"/>
<rect x="30" y="440" fill="#006837" width="10" height="10"/>
<rect x="70" y="440" fill="#006837" width="10" height="10"/>
<rect x="20" y="450" fill="#006837" width="10" height="10"/>
<rect x="40" y="450" fill="#006837" width="10" height="10"/>
<rect x="60" y="450" fill="#006837" width="10" height="10"/>
<rect x="80" y="450" fill="#006837" width="10" height="10"/>
<rect x="30" y="460" fill="#006837" width="10" height="10"/>
<rect x="50" y="460" fill="#006837" width="10" height="10"/>
<rect x="90" y="460" fill="#006837" width="10" height="10"/>
<rect y="470" fill="#8CC63F" width="100" height="100"/>
<rect y="570" fill="#39B54A" width="100" height="100"/>
<rect y="670" fill="#009245" width="100" height="100"/>
<rect y="470" fill="#39B54A" width="10" height="10"/>
<rect x="40" y="470" fill="#39B54A" width="10" height="10"/>
<rect x="60" y="470" fill="#39B54A" width="10" height="10"/>
<rect x="80" y="470" fill="#39B54A" width="10" height="10"/>
<rect x="10" y="480" fill="#39B54A" width="10" height="10"/>
<rect x="50" y="480" fill="#39B54A" width="10" height="10"/>
<rect y="490" fill="#39B54A" width="10" height="10"/>
<rect x="20" y="490" fill="#39B54A" width="10" height="10"/>
<rect x="60" y="490" fill="#39B54A" width="10" height="10"/>
<rect x="80" y="490" fill="#39B54A" width="10" height="10"/>
<rect x="10" y="500" fill="#39B54A" width="10" height="10"/>
<rect x="30" y="500" fill="#39B54A" width="10" height="10"/>
<rect x="50" y="500" fill="#39B54A" width="10" height="10"/>
<rect x="70" y="500" fill="#39B54A" width="10" height="10"/>
<rect x="20" y="510" fill="#39B54A" width="10" height="10"/>
<rect x="40" y="510" fill="#39B54A" width="10" height="10"/>
<rect x="80" y="510" fill="#39B54A" width="10" height="10"/>
<rect x="50" y="520" fill="#39B54A" width="10" height="10"/>
<polyline fill="#39B54A" points="80,530 70,530 70,520 80,520 "/>
<rect x="90" y="520" fill="#39B54A" width="10" height="10"/>
<rect y="530" fill="#39B54A" width="10" height="10"/>
<rect x="40" y="530" fill="#39B54A" width="10" height="10"/>
<rect x="60" y="530" fill="#39B54A" width="10" height="10"/>
<rect x="80" y="530" fill="#39B54A" width="10" height="10"/>
<rect x="10" y="540" fill="#39B54A" width="10" height="10"/>
<rect x="50" y="540" fill="#39B54A" width="10" height="10"/>
<rect x="70" y="540" fill="#39B54A" width="10" height="10"/>
<rect x="90" y="540" fill="#39B54A" width="10" height="10"/>
<rect y="550" fill="#39B54A" width="10" height="10"/>
<rect x="20" y="550" fill="#39B54A" width="10" height="10"/>
<rect x="40" y="550" fill="#39B54A" width="10" height="10"/>
<rect x="60" y="550" fill="#39B54A" width="10" height="10"/>
<rect x="80" y="550" fill="#39B54A" width="10" height="10"/>
<rect x="10" y="560" fill="#39B54A" width="10" height="10"/>
<rect x="50" y="560" fill="#39B54A" width="10" height="10"/>
<rect x="90" y="560" fill="#39B54A" width="10" height="10"/>
<rect y="570" fill="#009245" width="10" height="10"/>
<rect x="20" y="570" fill="#009245" width="10" height="10"/>
<rect x="60" y="570" fill="#009245" width="10" height="10"/>
<rect x="10" y="580" fill="#009245" width="10" height="10"/>
<rect x="30" y="580" fill="#009245" width="10" height="10"/>
<rect x="50" y="580" fill="#009245" width="10" height="10"/>
<rect x="90" y="580" fill="#009245" width="10" height="10"/>
<rect x="60" y="590" fill="#009245" width="10" height="10"/>
<rect x="80" y="590" fill="#009245" width="10" height="10"/>
<rect x="10" y="600" fill="#009245" width="10" height="10"/>
<rect x="30" y="600" fill="#009245" width="10" height="10"/>
<rect x="50" y="600" fill="#009245" width="10" height="10"/>
<rect x="90" y="600" fill="#009245" width="10" height="10"/>
<rect y="610" fill="#009245" width="10" height="10"/>
<rect x="40" y="610" fill="#009245" width="10" height="10"/>
<rect x="60" y="610" fill="#009245" width="10" height="10"/>
<rect x="80" y="610" fill="#009245" width="10" height="10"/>
<rect x="10" y="620" fill="#009245" width="10" height="10"/>
<rect x="30" y="620" fill="#009245" width="10" height="10"/>
<rect x="50" y="620" fill="#009245" width="10" height="10"/>
<rect x="70" y="620" fill="#009245" width="10" height="10"/>
<rect x="90" y="620" fill="#009245" width="10" height="10"/>
<rect x="20" y="630" fill="#009245" width="10" height="10"/>
<rect x="40" y="630" fill="#009245" width="10" height="10"/>
<rect x="80" y="630" fill="#009245" width="10" height="10"/>
<rect x="10" y="640" fill="#009245" width="10" height="10"/>
<rect x="30" y="640" fill="#009245" width="10" height="10"/>
<rect x="50" y="640" fill="#009245" width="10" height="10"/>
<rect x="70" y="640" fill="#009245" width="10" height="10"/>
<rect y="650" fill="#009245" width="10" height="10"/>
<rect x="40" y="650" fill="#009245" width="10" height="10"/>
<rect x="60" y="650" fill="#009245" width="10" height="10"/>
<rect x="80" y="650" fill="#009245" width="10" height="10"/>
<rect x="10" y="660" fill="#009245" width="10" height="10"/>
<rect x="30" y="660" fill="#009245" width="10" height="10"/>
<rect x="90" y="660" fill="#009245" width="10" height="10"/>
<polyline fill="#006837" points="10,680 0,680 0,670 10,670 "/>
<rect x="20" y="670" fill="#006837" width="10" height="10"/>
<rect x="60" y="670" fill="#006837" width="10" height="10"/>
<rect x="80" y="670" fill="#006837" width="10" height="10"/>
<rect x="10" y="680" fill="#006837" width="10" height="10"/>
<rect x="30" y="680" fill="#006837" width="10" height="10"/>
<rect x="50" y="680" fill="#006837" width="10" height="10"/>
<rect x="90" y="680" fill="#006837" width="10" height="10"/>
<rect x="20" y="690" fill="#006837" width="10" height="10"/>
<rect x="60" y="690" fill="#006837" width="10" height="10"/>
<rect x="50" y="700" fill="#006837" width="10" height="10"/>
<rect x="70" y="700" fill="#006837" width="10" height="10"/>
<rect y="710" fill="#006837" width="10" height="10"/>
<rect x="20" y="710" fill="#006837" width="10" height="10"/>
<rect x="40" y="710" fill="#006837" width="10" height="10"/>
<polyline fill="#006837" points="80,710 90,710 90,720 80,720 "/>
<rect x="30" y="720" fill="#006837" width="10" height="10"/>
<rect x="50" y="720" fill="#006837" width="10" height="10"/>
<rect x="70" y="720" fill="#006837" width="10" height="10"/>
<rect x="90" y="720" fill="#006837" width="10" height="10"/>
<rect y="730" fill="#006837" width="10" height="10"/>
<rect x="40" y="730" fill="#006837" width="10" height="10"/>
<rect x="80" y="730" fill="#006837" width="10" height="10"/>
<rect x="10" y="740" fill="#006837" width="10" height="10"/>
<rect x="30" y="740" fill="#006837" width="10" height="10"/>
<rect x="70" y="740" fill="#006837" width="10" height="10"/>
<rect x="20" y="750" fill="#006837" width="10" height="10"/>
<rect x="40" y="750" fill="#006837" width="10" height="10"/>
<rect x="60" y="750" fill="#006837" width="10" height="10"/>
<rect x="80" y="750" fill="#006837" width="10" height="10"/>
<rect x="30" y="760" fill="#006837" width="10" height="10"/>
<rect x="50" y="760" fill="#006837" width="10" height="10"/>
<rect x="90" y="760" fill="#006837" width="10" height="10"/>
<rect y="220" fill="#CCCCCC" width="100" height="50"/>
<rect y="220" fill="#C4C4C4" width="10" height="10"/>
<rect x="20" y="220" fill="#C4C4C4" width="10" height="10"/>
<rect x="40" y="220" fill="#C4C4C4" width="10" height="10"/>
<rect x="60" y="220" fill="#C4C4C4" width="10" height="10"/>
<rect x="80" y="220" fill="#C4C4C4" width="10" height="10"/>
<rect x="10" y="230" fill="#C4C4C4" width="10" height="10"/>
<rect x="30" y="230" fill="#C4C4C4" width="10" height="10"/>
<rect x="50" y="230" fill="#C4C4C4" width="10" height="10"/>
<rect x="70" y="230" fill="#C4C4C4" width="10" height="10"/>
<rect x="90" y="230" fill="#C4C4C4" width="10" height="10"/>
<rect y="240" fill="#C4C4C4" width="10" height="10"/>
<rect x="20" y="240" fill="#C4C4C4" width="10" height="10"/>
<rect x="40" y="240" fill="#C4C4C4" width="10" height="10"/>
<rect x="60" y="240" fill="#C4C4C4" width="10" height="10"/>
<rect x="80" y="240" fill="#C4C4C4" width="10" height="10"/>
<rect x="10" y="250" fill="#C4C4C4" width="10" height="10"/>
<rect x="30" y="250" fill="#C4C4C4" width="10" height="10"/>
<rect x="50" y="250" fill="#C4C4C4" width="10" height="10"/>
<rect x="70" y="250" fill="#C4C4C4" width="10" height="10"/>
<rect x="90" y="250" fill="#C4C4C4" width="10" height="10"/>
<rect y="260" fill="#C4C4C4" width="10" height="10"/>
<rect x="20" y="260" fill="#C4C4C4" width="10" height="10"/>
<rect x="40" y="260" fill="#C4C4C4" width="10" height="10"/>
<rect x="60" y="260" fill="#C4C4C4" width="10" height="10"/>
<rect x="80" y="260" fill="#C4C4C4" width="10" height="10"/>
<rect y="220" fill="#C4C4C4" width="10" height="10"/>
<rect x="20" y="220" fill="#C4C4C4" width="10" height="10"/>
<rect x="40" y="220" fill="#C4C4C4" width="10" height="10"/>
<rect x="60" y="220" fill="#C4C4C4" width="10" height="10"/>
<rect x="80" y="220" fill="#C4C4C4" width="10" height="10"/>
<rect x="10" y="230" fill="#C4C4C4" width="10" height="10"/>
<rect x="30" y="230" fill="#C4C4C4" width="10" height="10"/>
<rect x="50" y="230" fill="#C4C4C4" width="10" height="10"/>
<rect x="70" y="230" fill="#C4C4C4" width="10" height="10"/>
<rect x="90" y="230" fill="#C4C4C4" width="10" height="10"/>
<rect y="240" fill="#C4C4C4" width="10" height="10"/>
<rect x="20" y="240" fill="#C4C4C4" width="10" height="10"/>
<rect x="40" y="240" fill="#C4C4C4" width="10" height="10"/>
<rect x="60" y="240" fill="#C4C4C4" width="10" height="10"/>
<rect x="80" y="240" fill="#C4C4C4" width="10" height="10"/>
<rect x="10" y="250" fill="#C4C4C4" width="10" height="10"/>
<rect x="30" y="250" fill="#C4C4C4" width="10" height="10"/>
<rect x="50" y="250" fill="#C4C4C4" width="10" height="10"/>
<rect x="70" y="250" fill="#C4C4C4" width="10" height="10"/>
<rect x="90" y="250" fill="#C4C4C4" width="10" height="10"/>
<rect y="260" fill="#C4C4C4" width="10" height="10"/>
<rect x="20" y="260" fill="#C4C4C4" width="10" height="10"/>
<rect x="40" y="260" fill="#C4C4C4" width="10" height="10"/>
<rect x="60" y="260" fill="#C4C4C4" width="10" height="10"/>
<rect x="80" y="260" fill="#C4C4C4" width="10" height="10"/>
<rect y="320" fill="#CCCCCC" width="100" height="50"/>
<rect y="320" fill="#C4C4C4" width="10" height="10"/>
<rect x="20" y="320" fill="#C4C4C4" width="10" height="10"/>
<rect x="40" y="320" fill="#C4C4C4" width="10" height="10"/>
<rect x="60" y="320" fill="#C4C4C4" width="10" height="10"/>
<rect x="80" y="320" fill="#C4C4C4" width="10" height="10"/>
<rect x="10" y="330" fill="#C4C4C4" width="10" height="10"/>
<rect x="30" y="330" fill="#C4C4C4" width="10" height="10"/>
<rect x="50" y="330" fill="#C4C4C4" width="10" height="10"/>
<rect x="70" y="330" fill="#C4C4C4" width="10" height="10"/>
<rect x="90" y="330" fill="#C4C4C4" width="10" height="10"/>
<rect y="340" fill="#C4C4C4" width="10" height="10"/>
<rect x="20" y="340" fill="#C4C4C4" width="10" height="10"/>
<rect x="40" y="340" fill="#C4C4C4" width="10" height="10"/>
<rect x="60" y="340" fill="#C4C4C4" width="10" height="10"/>
<rect x="80" y="340" fill="#C4C4C4" width="10" height="10"/>
<rect x="10" y="350" fill="#C4C4C4" width="10" height="10"/>
<rect x="30" y="350" fill="#C4C4C4" width="10" height="10"/>
<rect x="50" y="350" fill="#C4C4C4" width="10" height="10"/>
<rect x="70" y="350" fill="#C4C4C4" width="10" height="10"/>
<rect x="90" y="350" fill="#C4C4C4" width="10" height="10"/>
<rect y="360" fill="#C4C4C4" width="10" height="10"/>
<rect x="20" y="360" fill="#C4C4C4" width="10" height="10"/>
<rect x="40" y="360" fill="#C4C4C4" width="10" height="10"/>
<rect x="60" y="360" fill="#C4C4C4" width="10" height="10"/>
<rect x="80" y="360" fill="#C4C4C4" width="10" height="10"/>
<rect y="320" fill="#C4C4C4" width="10" height="10"/>
<rect x="20" y="320" fill="#C4C4C4" width="10" height="10"/>
<rect x="40" y="320" fill="#C4C4C4" width="10" height="10"/>
<rect x="60" y="320" fill="#C4C4C4" width="10" height="10"/>
<rect x="80" y="320" fill="#C4C4C4" width="10" height="10"/>
<rect x="10" y="330" fill="#C4C4C4" width="10" height="10"/>
<rect x="30" y="330" fill="#C4C4C4" width="10" height="10"/>
<rect x="50" y="330" fill="#C4C4C4" width="10" height="10"/>
<rect x="70" y="330" fill="#C4C4C4" width="10" height="10"/>
<rect x="90" y="330" fill="#C4C4C4" width="10" height="10"/>
<rect y="340" fill="#C4C4C4" width="10" height="10"/>
<rect x="20" y="340" fill="#C4C4C4" width="10" height="10"/>
<rect x="40" y="340" fill="#C4C4C4" width="10" height="10"/>
<rect x="60" y="340" fill="#C4C4C4" width="10" height="10"/>
<rect x="80" y="340" fill="#C4C4C4" width="10" height="10"/>
<rect x="10" y="350" fill="#C4C4C4" width="10" height="10"/>
<rect x="30" y="350" fill="#C4C4C4" width="10" height="10"/>
<rect x="50" y="350" fill="#C4C4C4" width="10" height="10"/>
<rect x="70" y="350" fill="#C4C4C4" width="10" height="10"/>
<rect x="90" y="350" fill="#C4C4C4" width="10" height="10"/>
<rect y="360" fill="#C4C4C4" width="10" height="10"/>
<rect x="20" y="360" fill="#C4C4C4" width="10" height="10"/>
<rect x="40" y="360" fill="#C4C4C4" width="10" height="10"/>
<rect x="60" y="360" fill="#C4C4C4" width="10" height="10"/>
<rect x="80" y="360" fill="#C4C4C4" width="10" height="10"/>
<rect y="420" fill="#CCCCCC" width="100" height="50"/>
<rect y="420" fill="#C4C4C4" width="10" height="10"/>
<rect x="20" y="420" fill="#C4C4C4" width="10" height="10"/>
<rect x="40" y="420" fill="#C4C4C4" width="10" height="10"/>
<rect x="60" y="420" fill="#C4C4C4" width="10" height="10"/>
<rect x="80" y="420" fill="#C4C4C4" width="10" height="10"/>
<rect x="10" y="430" fill="#C4C4C4" width="10" height="10"/>
<rect x="30" y="430" fill="#C4C4C4" width="10" height="10"/>
<rect x="50" y="430" fill="#C4C4C4" width="10" height="10"/>
<rect x="70" y="430" fill="#C4C4C4" width="10" height="10"/>
<rect x="90" y="430" fill="#C4C4C4" width="10" height="10"/>
<rect y="440" fill="#C4C4C4" width="10" height="10"/>
<rect x="20" y="440" fill="#C4C4C4" width="10" height="10"/>
<rect x="40" y="440" fill="#C4C4C4" width="10" height="10"/>
<rect x="60" y="440" fill="#C4C4C4" width="10" height="10"/>
<rect x="80" y="440" fill="#C4C4C4" width="10" height="10"/>
<rect x="10" y="450" fill="#C4C4C4" width="10" height="10"/>
<rect x="30" y="450" fill="#C4C4C4" width="10" height="10"/>
<rect x="50" y="450" fill="#C4C4C4" width="10" height="10"/>
<rect x="70" y="450" fill="#C4C4C4" width="10" height="10"/>
<rect x="90" y="450" fill="#C4C4C4" width="10" height="10"/>
<rect y="460" fill="#C4C4C4" width="10" height="10"/>
<rect x="20" y="460" fill="#C4C4C4" width="10" height="10"/>
<rect x="40" y="460" fill="#C4C4C4" width="10" height="10"/>
<rect x="60" y="460" fill="#C4C4C4" width="10" height="10"/>
<rect x="80" y="460" fill="#C4C4C4" width="10" height="10"/>
<rect y="420" fill="#C4C4C4" width="10" height="10"/>
<rect x="20" y="420" fill="#C4C4C4" width="10" height="10"/>
<rect x="40" y="420" fill="#C4C4C4" width="10" height="10"/>
<rect x="60" y="420" fill="#C4C4C4" width="10" height="10"/>
<rect x="80" y="420" fill="#C4C4C4" width="10" height="10"/>
<rect x="10" y="430" fill="#C4C4C4" width="10" height="10"/>
<rect x="30" y="430" fill="#C4C4C4" width="10" height="10"/>
<rect x="50" y="430" fill="#C4C4C4" width="10" height="10"/>
<rect x="70" y="430" fill="#C4C4C4" width="10" height="10"/>
<rect x="90" y="430" fill="#C4C4C4" width="10" height="10"/>
<rect y="440" fill="#C4C4C4" width="10" height="10"/>
<rect x="20" y="440" fill="#C4C4C4" width="10" height="10"/>
<rect x="40" y="440" fill="#C4C4C4" width="10" height="10"/>
<rect x="60" y="440" fill="#C4C4C4" width="10" height="10"/>
<rect x="80" y="440" fill="#C4C4C4" width="10" height="10"/>
<rect x="10" y="450" fill="#C4C4C4" width="10" height="10"/>
<rect x="30" y="450" fill="#C4C4C4" width="10" height="10"/>
<rect x="50" y="450" fill="#C4C4C4" width="10" height="10"/>
<rect x="70" y="450" fill="#C4C4C4" width="10" height="10"/>
<rect x="90" y="450" fill="#C4C4C4" width="10" height="10"/>
<rect y="460" fill="#C4C4C4" width="10" height="10"/>
<rect x="20" y="460" fill="#C4C4C4" width="10" height="10"/>
<rect x="40" y="460" fill="#C4C4C4" width="10" height="10"/>
<rect x="60" y="460" fill="#C4C4C4" width="10" height="10"/>
<rect x="80" y="460" fill="#C4C4C4" width="10" height="10"/>
</svg>
