<?xml version="1.0" encoding="utf-8"?>
<!-- Generator: Adobe Illustrator 15.0.2, SVG Export Plug-In  -->
<!DOCTYPE svg PUBLIC "-//W3C//DTD SVG 1.1//EN" "http://www.w3.org/Graphics/SVG/1.1/DTD/svg11.dtd" [
	<!ENTITY ns_flows "http://ns.adobe.com/Flows/1.0/">
]>
<svg version="1.1"
	 xmlns="http://www.w3.org/2000/svg" xmlns:xlink="http://www.w3.org/1999/xlink" xmlns:a="http://ns.adobe.com/AdobeSVGViewerExtensions/3.0/"
	 x="0px" y="0px" width="100px" height="100px" viewBox="-20 0 100 100" overflow="visible" enable-background="new -20 0 100 100"
	 xml:space="preserve">
<defs>
</defs>
<path id="runner-color_2_" fill="#FF0000" d="M70,30H60H50H40H30H20H10v10v10v10v10H0v10h10h10V70V60h10h10v10h10V60h10V50V40h10h10
	V30H70z M50,80V70h10v10v10H50V80z"/>
<path fill="#534741" d="M60,0v10H50H40H30H20H10V0h10h10h10h10H60z"/>
<path opacity="0.4" d="M30,40v10H20H10V40V30h10v10H30z M70,30H60H50v10h10h10h10V30H70z"/>
<path fill="#C7B299" d="M40,50H30V40h10V50z M50,10H40H30H20H10v10v10h10h10h10h10h10V20V10H50z M80,20H70v10h10V20z"/>
<path opacity="0.7" d="M50,70H40V60h10V70z M10,60v10v10h10V70V60H10z M60,70H50v10h10V70z"/>
<path opacity="0.9" d="M60,90H50V80h10V90z M10,70H0v10h10V70z"/>
</svg>
