<?xml version="1.0" encoding="utf-8"?>
<!-- Generator: Adobe Illustrator 15.0.2, SVG Export Plug-In  -->
<!DOCTYPE svg PUBLIC "-//W3C//DTD SVG 1.1//EN" "http://www.w3.org/Graphics/SVG/1.1/DTD/svg11.dtd" [
	<!ENTITY ns_flows "http://ns.adobe.com/Flows/1.0/">
]>
<svg version="1.1"
	 xmlns="http://www.w3.org/2000/svg" xmlns:xlink="http://www.w3.org/1999/xlink" xmlns:a="http://ns.adobe.com/AdobeSVGViewerExtensions/3.0/"
	 x="0px" y="0px" width="220px" height="110px" viewBox="0 0 220 110" overflow="visible" enable-background="new 0 0 220 110"
	 xml:space="preserve">
<defs>
</defs>
<rect display="none" fill="#8CC63F" width="220" height="110"/>
<path opacity="0.5" fill="#FFFFFF" d="M90,50h10v30H90v30H60V80H50v30H20V80v-6V0h70V50z M200,20V0h-70v30h-20v50h10v20h40V80h10v10
	h10v20h30V91V80V70h10V20H200z"/>
<path fill="#FF0000" d="M190,70h-50V40h50V70z M150,70h-10v10h10V70z M200,50h-10v10h10V50z M210,40h-10v10h10V40z M210,50h-10v10
	h10V50z M150,80h-10v10h10V80z M140,80h-10v10h10V80z M200,90h-10v10h10V90z M200,80h-10v10h10V80z M190,70h-10v10h10V70z M130,50
	h10V40h-10V50z M120,60h10V50h-10V60z M120,50h10V40h-10V50z M80,40H30v30h50V40z M40,70H30v10h10V70z M40,80H30v10h10V80z M40,90
	H30v10h10V90z M80,90H70v10h10V90z M80,80H70v10h10V80z M80,70H70v10h10V70z"/>
<path fill="#534741" d="M190,20h-50V10h50V20z M80,10H30v10h50V10z"/>
<path opacity="0.6" d="M40,100H30V70h10V100z M80,70H70v30h10V70z M150,70h-10v20h10V70z M190,70h-10v10h10V70z M200,80h-10v20h10
	V80z M140,80h-10v10h10V80z"/>
<path fill="#C7B299" d="M190,40h-50V20h50V40z M210,30h-10v10h10V30z M120,70h10V60h-10V70z M80,20H30v20h50V20z M90,60H80v10h10V60
	z M50,60h10V50H50V60z"/>
<path opacity="0.3" d="M40,50h10v10H40H30V40h10V50z M70,40v30h10V40H70z M120,50v10h10V50h10V40h-20V50z M200,50h-10v10h20V50V40
	h-10V50z"/>
<path opacity="0.7" d="M40,100H30V90h10V100z M80,90H70v10h10V90z M200,90h-10v10h10V90z M140,80h-10v10h10V80z"/>
</svg>
